<svg width="103" height="103" viewBox="0 0 103 103" fill="none" xmlns="http://www.w3.org/2000/svg">
<path d="M51.5948 102.215C79.4555 102.215 102.041 79.63 102.041 51.7694C102.041 23.9087 79.4555 1.32312 51.5948 1.32312C23.7342 1.32312 1.14862 23.9087 1.14862 51.7694C1.14862 79.63 23.7342 102.215 51.5948 102.215Z" fill="white"/>
<path d="M51.5949 102.929C23.3885 102.929 0.434998 79.9758 0.434998 51.7693C0.434998 23.5629 23.3885 0.609375 51.5949 0.609375C79.8014 0.609375 102.755 23.5629 102.755 51.7693C102.755 79.9758 79.8014 102.929 51.5949 102.929ZM51.5949 2.03682C24.1736 2.03682 1.86245 24.348 1.86245 51.7693C1.86245 79.1907 24.1736 101.501 51.5949 101.501C79.0163 101.501 101.327 79.1907 101.327 51.7693C101.327 24.348 79.0163 2.03682 51.5949 2.03682Z" fill="#292F36"/>
<path d="M58.7893 6.44765C59.1319 6.4762 59.4317 6.49047 59.6744 6.49047L59.6458 6.71886C59.2461 6.77595 58.9035 7.07573 58.6323 7.64671L55.235 14.4414L55.1351 14.4271L55.0494 14.4129L52.894 6.83306C52.7512 6.33345 52.5085 6.06223 52.166 6.0194L52.1945 5.79102C52.5085 5.84811 52.9225 5.89093 53.4364 5.94803C54.1073 6.00513 54.6069 6.04796 54.9352 6.04796L54.9067 6.27634C54.6069 6.26207 54.3928 6.27634 54.2643 6.31917C54.1358 6.36199 54.0645 6.4762 54.0502 6.61894C54.0359 6.74741 54.0645 6.93297 54.1358 7.17564L55.7203 12.9711L58.0756 8.23197C58.2755 7.84655 58.3754 7.53251 58.4039 7.30411C58.4325 7.06144 58.3611 6.87589 58.2041 6.74741C58.0471 6.61894 57.7901 6.54756 57.4475 6.50475L57.4761 6.27634C57.89 6.34772 58.3326 6.40483 58.7893 6.44765Z" fill="#292F36"/>
<path d="M68.3816 9.45965C68.2389 9.45965 68.1247 9.51675 68.0391 9.63095C67.9534 9.74514 67.8535 9.93072 67.7536 10.2019L65.7123 15.6263C65.6124 15.8975 65.5553 16.1116 65.5553 16.2544C65.5553 16.3971 65.5981 16.5113 65.698 16.5969C65.798 16.6826 65.9835 16.7825 66.2405 16.8967L66.1548 17.1108C65.8265 16.9681 65.3697 16.7825 64.7845 16.5541C64.1564 16.3115 63.6853 16.1544 63.3713 16.0545L63.4569 15.8404C63.7281 15.926 63.928 15.9689 64.0565 15.9689C64.1849 15.9689 64.3134 15.9118 64.399 15.7976C64.4847 15.6834 64.5846 15.4978 64.6845 15.2266L66.7258 9.80223C66.8257 9.53102 66.8828 9.31691 66.8828 9.17416C66.8828 9.03141 66.84 8.91722 66.7401 8.83158C66.6401 8.74592 66.4546 8.646 66.1976 8.53181L66.2833 8.31769C66.5831 8.44616 67.0398 8.63173 67.6679 8.8744C68.2532 9.10279 68.7242 9.2598 69.0668 9.35972L68.9812 9.57384C68.7242 9.4882 68.5244 9.44537 68.3816 9.45965Z" fill="#292F36"/>
<path d="M81.086 17.0108C80.9433 16.9823 80.8005 17.0251 80.6721 17.1108C80.5436 17.1964 80.3866 17.3677 80.2153 17.6104L76.0757 23.2203L75.8616 23.0632L76.4183 14.0417L72.7497 19.0093C72.5784 19.2519 72.4642 19.4518 72.4071 19.6088C72.35 19.7658 72.3786 19.9086 72.4499 20.0513C72.5213 20.1941 72.6926 20.3511 72.9353 20.5509L72.7925 20.7365C72.5784 20.5509 72.2644 20.3083 71.8504 19.9942C71.4793 19.723 71.1795 19.5089 70.9511 19.3804L71.0939 19.1948C71.3222 19.3519 71.5078 19.4375 71.6506 19.4518C71.7933 19.4803 71.9361 19.4375 72.0645 19.3519C72.193 19.2519 72.35 19.0949 72.5213 18.8523L75.8901 14.2844C76.0614 14.0417 76.1756 13.8562 76.2184 13.7277C76.2612 13.5992 76.247 13.4708 76.1756 13.3566C76.1042 13.2424 75.9615 13.0996 75.7331 12.914L75.8758 12.7285C76.0614 12.8998 76.3469 13.1282 76.7323 13.3994C77.0178 13.6135 77.2605 13.7848 77.4888 13.9133L77.0321 21.4788L80.0012 17.4534C80.1725 17.2107 80.3009 17.0108 80.3438 16.8538C80.3866 16.6968 80.3723 16.5541 80.3009 16.4113C80.2296 16.2686 80.0583 16.0973 79.8156 15.9117L79.9583 15.7261C80.1725 15.9117 80.4865 16.1544 80.9005 16.4684C81.2716 16.7396 81.5714 16.9537 81.7998 17.0822L81.657 17.2678C81.4143 17.125 81.2288 17.0251 81.086 17.0108Z" fill="#292F36"/>
<path d="M85.868 23.4486C86.2392 23.1774 86.6246 22.8776 87.0385 22.5065C87.3954 23.0489 88.0235 23.9482 88.9228 25.2187C89.8221 26.4748 90.4644 27.3598 90.8499 27.8737C90.3645 28.1592 89.9506 28.4162 89.5794 28.6731C89.2654 28.9015 89.0084 29.1013 88.8229 29.2583L88.6659 29.0442C89.1226 28.6445 89.4367 28.3162 89.6222 28.0736C89.8078 27.8309 89.8792 27.574 89.8649 27.3027C89.8506 27.0315 89.6793 26.7032 89.4081 26.3035L89.037 25.7896L83.6269 29.6438C83.37 29.8293 83.1844 30.0006 83.0988 30.1291C83.0131 30.2576 82.9846 30.4146 83.0417 30.5859C83.0845 30.7429 83.213 30.9713 83.3985 31.2568L83.213 31.3995C82.9989 31.0569 82.6705 30.5716 82.2423 29.9864C81.7855 29.344 81.4429 28.8872 81.2145 28.6017L81.4001 28.459C81.6142 28.7302 81.7855 28.9158 81.9283 29.0157C82.071 29.1156 82.2138 29.1442 82.3708 29.1013C82.5278 29.0585 82.7419 28.9443 82.9989 28.7587L88.4089 24.9046L88.0378 24.3907C87.7523 23.991 87.4953 23.7484 87.2527 23.6342C87.01 23.52 86.7388 23.5057 86.4533 23.6056C86.1678 23.7056 85.7538 23.8911 85.2257 24.1909L85.0687 23.9768C85.2828 23.8626 85.5397 23.6913 85.868 23.4486Z" fill="#292F36"/>
<path d="M88.6086 43.2618L88.3802 43.3331C88.2946 43.0191 88.1804 42.6194 88.0091 42.1341C87.795 41.506 87.6237 41.0349 87.4952 40.7209L87.7236 40.6495C87.8235 40.9207 87.9377 41.1206 88.0234 41.2205C88.1233 41.3204 88.2518 41.349 88.3945 41.2919C88.523 41.249 88.68 41.1491 88.8656 40.9921L90.45 39.6931L89.5507 37.0238L88.2232 36.9667C87.795 36.9381 87.4667 36.9667 87.2383 37.0523C87.0099 37.138 86.8671 37.2664 86.81 37.452C86.7672 37.6376 86.7958 37.9088 86.8957 38.2371L86.6673 38.3085C86.5531 37.8803 86.4103 37.452 86.2676 37.0238C86.1534 36.6955 86.0535 36.4243 85.9536 36.2101L86.1819 36.1388C86.3818 36.4813 86.81 36.6669 87.4381 36.6812L95.0322 37.0238L95.0893 37.1951L89.0369 42.234C88.6657 42.5908 88.523 42.9192 88.6086 43.2618ZM93.5619 37.1951L89.822 37.0381L90.6642 39.5504L93.5619 37.1951Z" fill="#292F36"/>
<path d="M89.6509 54.1818C89.7936 54.1247 89.865 54.0533 89.865 53.9534C89.865 53.8963 89.8507 53.8535 89.8222 53.8107C89.7936 53.7678 89.7365 53.6822 89.6509 53.568C89.4368 53.2968 89.2797 53.0113 89.1655 52.7258C89.0513 52.4403 88.9942 52.112 88.9942 51.7551C88.98 50.9558 89.137 50.2706 89.451 49.6853C89.7793 49.1001 90.2361 48.6575 90.8642 48.3435C91.478 48.0295 92.2203 47.8724 93.091 47.8582C93.9903 47.8439 94.7754 47.9866 95.4463 48.3007C96.1172 48.6147 96.6454 49.043 97.0165 49.6139C97.3877 50.1849 97.5875 50.8273 97.5875 51.541C97.5875 51.855 97.559 52.1405 97.5019 52.3832C97.4448 52.6259 97.3591 52.84 97.2592 53.0256C97.1593 53.2111 97.0308 53.4252 96.8595 53.6536C96.7881 53.7536 96.7453 53.8392 96.7453 53.8963C96.7453 54.0391 96.988 54.139 97.459 54.1818V54.453C96.9594 54.4245 96.0601 54.4245 94.7754 54.453V54.1818C95.1894 54.1104 95.532 54.0248 95.8032 53.9391C96.0744 53.8535 96.3028 53.725 96.5027 53.568C96.7739 53.3396 97.0023 53.0398 97.1593 52.6687C97.3163 52.2976 97.3877 51.9264 97.3877 51.5267C97.3734 51.0128 97.2021 50.5703 96.8595 50.1849C96.5169 49.7995 96.0316 49.514 95.4178 49.2999C94.7897 49.1001 94.076 49.0001 93.248 49.0144C92.3059 49.0287 91.5494 49.1429 90.9499 49.357C90.3503 49.5711 89.9221 49.8852 89.6366 50.2991C89.3511 50.7131 89.2226 51.2412 89.2369 51.8836C89.2512 52.3547 89.3797 52.7543 89.6223 53.0969C89.7222 53.2397 89.8079 53.3253 89.9078 53.3681C89.9935 53.411 90.1219 53.4252 90.2789 53.4252L91.4066 53.411C91.735 53.411 91.9633 53.3681 92.1204 53.311C92.2631 53.2539 92.3773 53.1398 92.4201 52.9685C92.4772 52.8114 92.5058 52.5545 92.5058 52.2119H92.7342C92.7199 52.5973 92.7056 53.1398 92.7199 53.8678C92.7342 54.4102 92.7484 54.8241 92.777 55.0811H92.5486C92.5343 54.8955 92.4915 54.7671 92.4487 54.6957C92.4059 54.6243 92.3059 54.5672 92.1775 54.5387C92.049 54.5101 91.8349 54.4958 91.5351 54.5101L89.2226 54.5529V54.3245C89.3511 54.2674 89.5081 54.2389 89.6509 54.1818Z" fill="#292F36"/>
<path d="M87.952 66.3294C87.5381 66.2009 87.0527 66.0724 86.496 65.9582C86.6816 65.4586 86.9528 64.6164 87.3382 63.4173C87.795 61.9899 88.1233 60.905 88.3232 60.177L88.5516 60.2484C88.4802 60.5196 88.4516 60.7195 88.4516 60.8622C88.4659 61.0049 88.523 61.1049 88.6372 61.1905C88.7514 61.2762 88.9513 61.3618 89.2225 61.4475L94.7467 63.189C95.0322 63.2746 95.2321 63.3174 95.3748 63.3174C95.5175 63.3174 95.6317 63.2603 95.7174 63.1461C95.803 63.0319 95.8887 62.8464 95.9886 62.5894L96.217 62.6608C95.96 63.3888 95.6175 64.4594 95.1607 65.8868C94.8181 66.9717 94.5754 67.7568 94.4612 68.2279C93.9902 68.028 93.5619 67.8567 93.1622 67.7425C92.8767 67.6569 92.6341 67.5855 92.4628 67.557L92.5484 67.3C93.048 67.3999 93.4335 67.4428 93.6904 67.4428C93.9473 67.4428 94.1615 67.3571 94.3328 67.1858C94.504 67.0288 94.6468 66.7433 94.7753 66.3579L95.0608 65.4301C95.1464 65.1588 95.1892 64.959 95.175 64.8305C95.1607 64.7021 95.1179 64.5879 95.0037 64.5022C94.8895 64.4166 94.7039 64.3309 94.4184 64.2453L91.7919 63.4173L91.5635 64.1596C91.4493 64.5308 91.4778 64.8163 91.6634 65.0161C91.849 65.2159 92.0488 65.3587 92.2772 65.4586C92.5056 65.5585 92.6484 65.6299 92.7055 65.6584L92.6198 65.9154C92.2629 65.7726 91.9204 65.6442 91.5778 65.5443L91.0496 65.3872C90.6785 65.273 90.136 65.116 89.4509 64.959L89.5365 64.7021C89.5936 64.7163 89.7792 64.7449 90.0932 64.8163C90.4073 64.8733 90.6785 64.8448 90.8926 64.7306C91.1067 64.6164 91.2495 64.4023 91.3494 64.1025L91.5778 63.3602L88.8942 62.5181C88.6087 62.4324 88.4088 62.3896 88.2661 62.3896C88.1233 62.3896 88.0091 62.4467 87.9378 62.5609C87.8521 62.6751 87.7665 62.8606 87.6808 63.1319L87.4239 63.9455C87.2811 64.4166 87.224 64.7877 87.2811 65.0589C87.324 65.3444 87.4667 65.5728 87.7094 65.7726C87.952 65.9582 88.3232 66.1723 88.8228 66.4007L88.7371 66.6577C88.5658 66.5292 88.2946 66.4436 87.952 66.3294Z" fill="#292F36"/>
<path d="M83.8839 83.8442C83.941 83.7158 83.9268 83.5873 83.8697 83.4588C83.8126 83.3303 83.6698 83.1733 83.4557 82.9592L79.259 78.9481C79.0449 78.7482 78.8736 78.6198 78.7451 78.5627C78.6166 78.5056 78.4882 78.5056 78.3597 78.5627C78.2312 78.6198 78.0742 78.7482 77.8744 78.9481L77.7031 78.791C77.9743 78.5484 78.3169 78.1915 78.7594 77.749C79.2162 77.2637 79.5588 76.8925 79.7729 76.6499L79.9442 76.8069C79.7586 77.021 79.6444 77.1923 79.5873 77.3065C79.5302 77.435 79.5445 77.5634 79.6016 77.6919C79.6587 77.8204 79.8014 77.9774 80.0155 78.1915L84.2123 82.2027C84.4264 82.4025 84.5977 82.531 84.7261 82.5881C84.8546 82.6452 84.9831 82.6452 85.1115 82.5881C85.24 82.531 85.397 82.4025 85.5969 82.2027L85.7682 82.3597C85.5255 82.5738 85.1686 82.9307 84.7119 83.416C84.2694 83.8728 83.941 84.2439 83.7126 84.5151L83.5414 84.3581C83.7126 84.144 83.8268 83.9727 83.8839 83.8442Z" fill="#292F36"/>
<path d="M71.9932 92.5516C72.0788 92.4232 72.0931 92.2947 72.0645 92.1377C72.036 91.9807 71.9361 91.7808 71.779 91.5096L68.239 85.5L68.4673 85.3573L76.5467 89.397L73.4206 84.0868C73.2636 83.8299 73.1351 83.6443 73.0067 83.5444C72.8782 83.4445 72.7354 83.4017 72.5784 83.4159C72.4214 83.4302 72.2073 83.5159 71.9361 83.6586L71.8076 83.4588C72.0645 83.3446 72.4071 83.1447 72.8496 82.8878C73.2493 82.6451 73.5491 82.4595 73.7632 82.3025L73.8774 82.5024C73.649 82.6451 73.492 82.7878 73.4206 82.9163C73.335 83.0448 73.3207 83.1733 73.3492 83.3303C73.3778 83.4873 73.4777 83.6871 73.6347 83.9584L76.5182 88.8545C76.6609 89.1115 76.7894 89.2828 76.9036 89.3684C77.0178 89.4541 77.132 89.4969 77.2747 89.4683C77.4032 89.4398 77.603 89.3684 77.8457 89.2399L77.9599 89.4398C77.7315 89.554 77.4175 89.7253 77.0035 89.9679C76.7038 90.1392 76.4468 90.3105 76.2327 90.4533L69.4523 87.0702L71.9932 91.3811C72.1502 91.6381 72.2786 91.8236 72.4071 91.9236C72.5213 92.0235 72.6641 92.0663 72.8354 92.052C73.0067 92.0377 73.2208 91.9521 73.492 91.8094L73.6062 92.0092C73.3492 92.1234 73.0066 92.3232 72.5641 92.5802C72.1645 92.8228 71.8647 93.0084 71.6506 93.1654L71.5364 92.9656C71.7505 92.8086 71.9075 92.6658 71.9932 92.5516Z" fill="#292F36"/>
<path d="M64.1422 94.4217C64.2421 94.8643 64.3706 95.3496 64.5419 95.8635C63.8995 95.9777 62.8289 96.2061 61.3158 96.5201C59.8027 96.8484 58.7464 97.0911 58.1183 97.2481C58.047 96.6914 57.9756 96.2061 57.8757 95.7636C57.79 95.3781 57.7186 95.0641 57.633 94.8357L57.8899 94.7786C58.0755 95.3639 58.2468 95.7778 58.4038 96.049C58.5608 96.3203 58.7607 96.4916 59.0176 96.5772C59.2746 96.6628 59.6457 96.6486 60.1168 96.5486L60.7306 96.4202L59.3317 89.9253C59.2603 89.6112 59.1889 89.3828 59.089 89.2544C58.9891 89.1259 58.8749 89.0402 58.7036 89.026C58.5323 88.9974 58.2754 89.026 57.9328 89.0831L57.8899 88.8547C58.2896 88.7976 58.8606 88.6834 59.5743 88.5264C60.3309 88.3551 60.9019 88.2266 61.2587 88.1267L61.3016 88.3551C60.959 88.4407 60.7306 88.5264 60.5878 88.612C60.4451 88.6977 60.3594 88.8261 60.3309 88.9831C60.3023 89.1402 60.3166 89.3828 60.388 89.6969L61.7869 96.1918L62.4007 96.0633C62.8718 95.9634 63.2143 95.8206 63.4142 95.6351C63.614 95.4495 63.7282 95.2068 63.7568 94.9071C63.7853 94.6073 63.771 94.1505 63.6997 93.551L63.9566 93.4939C63.9994 93.7223 64.0565 94.0363 64.1422 94.4217Z" fill="#292F36"/>
<path d="M45.1998 90.4105C45.2426 89.968 45.2569 89.4684 45.2569 88.9116C45.785 88.983 46.6701 89.0687 47.9262 89.1829C49.4108 89.3113 50.5385 89.4113 51.3093 89.4541L51.295 89.6825C51.0095 89.6682 50.8097 89.6825 50.6812 89.7253C50.5527 89.7681 50.4528 89.8395 50.3957 89.968C50.3386 90.0964 50.2958 90.3106 50.2673 90.596L49.7534 96.3772C49.7248 96.6627 49.7391 96.8768 49.7676 97.0196C49.7962 97.1623 49.8818 97.2622 50.0103 97.3193C50.1388 97.3764 50.3386 97.4335 50.6098 97.4621L50.5956 97.6905C49.839 97.6048 48.7113 97.4906 47.2268 97.3622C46.0848 97.2622 45.2712 97.2052 44.7858 97.1766C44.8858 96.677 44.9571 96.2202 44.9857 95.8062C45.0142 95.5065 45.0285 95.2638 45.0142 95.0782L45.2854 95.1068C45.2997 95.6207 45.3283 95.9918 45.3996 96.2488C45.4567 96.5057 45.5852 96.6913 45.785 96.8197C45.9706 96.9482 46.2847 97.0339 46.6843 97.0624L47.655 97.148C47.9405 97.1766 48.1403 97.1623 48.2688 97.1338C48.3973 97.1052 48.4972 97.0196 48.5543 96.8911C48.6114 96.7626 48.6542 96.5485 48.6828 96.263L48.9254 93.5223L48.1546 93.4509C47.7692 93.4224 47.498 93.508 47.341 93.7364C47.1982 93.9648 47.084 94.1932 47.0412 94.4359C46.9841 94.6786 46.9556 94.8356 46.9413 94.9069L46.6701 94.8784C46.7272 94.493 46.77 94.1361 46.8128 93.7793L46.8556 93.2226C46.8842 92.8229 46.9127 92.2804 46.9413 91.5667L47.2125 91.5953C47.2125 91.6524 47.2268 91.8379 47.2268 92.1662C47.241 92.4946 47.3124 92.7515 47.4837 92.9228C47.6407 93.1084 47.8834 93.2083 48.1974 93.2368L48.9683 93.3082L49.2109 90.5104C49.2395 90.2249 49.2252 90.0108 49.1967 89.868C49.1681 89.7396 49.0825 89.6396 48.954 89.5826C48.8255 89.5255 48.6257 89.4826 48.3545 89.4541L47.498 89.3827C47.0127 89.3399 46.6415 89.3684 46.3703 89.4826C46.1134 89.5825 45.9135 89.7824 45.7708 90.0536C45.628 90.3248 45.5138 90.7388 45.3996 91.2812L45.1284 91.2527C45.1284 91.0386 45.157 90.7531 45.1998 90.4105Z" fill="#292F36"/>
<path d="M33.9658 85.1146C34.1799 85.0718 34.4225 85.1146 34.6795 85.2288C34.9793 85.3573 35.1791 85.5429 35.2933 85.7855C35.4075 86.0425 35.4218 86.3993 35.3504 86.8704L35.1363 88.0409C35.0649 88.4549 35.0221 88.7689 35.0078 89.0116C34.9935 89.24 35.0506 89.4541 35.1505 89.6397C35.2505 89.8252 35.436 89.968 35.7073 90.0822L36.735 90.5104L37.7771 88.0266C37.8913 87.7554 37.9484 87.5556 37.9626 87.4128C37.9769 87.2701 37.9198 87.1559 37.8199 87.056C37.72 86.9561 37.5487 86.8561 37.2917 86.7419L37.3774 86.5278C37.7057 86.6848 38.1482 86.8847 38.7335 87.1274C39.3473 87.3843 39.8183 87.5699 40.1324 87.6698L40.0467 87.8839C39.7755 87.784 39.5757 87.7412 39.4472 87.7269C39.3044 87.7269 39.1902 87.7697 39.1046 87.8839C39.0047 87.9838 38.9048 88.1694 38.7906 88.4406L36.5495 93.7936C36.4353 94.0648 36.3782 94.2646 36.3639 94.4074C36.3496 94.5501 36.4067 94.6643 36.5066 94.7642C36.6066 94.8641 36.7778 94.9641 37.0348 95.0925L36.9491 95.3067C36.6494 95.1639 36.2211 94.9641 35.6502 94.7214C35.3647 94.6072 35.0649 94.4787 34.7223 94.336C34.3797 94.1933 34.1513 94.1076 34.0229 94.0505C33.4662 93.8078 33.0236 93.5366 32.6953 93.2083C32.367 92.88 32.1814 92.5374 32.0958 92.1663C32.0102 91.7951 32.053 91.4383 32.21 91.0814C32.3242 90.7959 32.5098 90.539 32.7667 90.3106C33.0236 90.0822 33.352 89.9109 33.7516 89.8252C34.1513 89.7396 34.6367 89.7539 35.1648 89.8823L35.0364 89.811C34.7366 89.6254 34.5082 89.4398 34.3655 89.24C34.2227 89.0544 34.1228 88.8403 34.0942 88.6119C34.0514 88.3835 34.0657 88.098 34.1228 87.7554L34.3226 86.5421C34.3654 86.2994 34.394 86.1139 34.394 85.9711C34.394 85.8284 34.3797 85.7142 34.3369 85.6285C34.2941 85.5429 34.2227 85.4715 34.1228 85.443C34.0086 85.3859 33.8944 85.3859 33.7945 85.4144C33.6945 85.443 33.5518 85.5143 33.3662 85.6142L33.252 85.4287C33.509 85.2717 33.7516 85.1575 33.9658 85.1146ZM34.6795 90.1964C34.3369 90.2392 34.0657 90.3677 33.8516 90.5818C33.6374 90.7959 33.4519 91.0814 33.2949 91.4525C33.0522 92.0378 32.9951 92.5517 33.1521 92.9656C33.3091 93.3796 33.6945 93.7222 34.3369 93.9934C34.5653 94.0933 34.7366 94.1362 34.8793 94.1219C35.0078 94.1219 35.122 94.0648 35.2219 93.9506C35.3218 93.8364 35.4218 93.6508 35.5217 93.3939L36.6351 90.7388L35.9071 90.439C35.436 90.2392 35.0221 90.1535 34.6795 90.1964Z" fill="#292F36"/>
<path d="M22.8316 87.056C22.9601 87.0988 23.0885 87.0703 23.2027 86.9989C23.3169 86.9275 23.474 86.7705 23.6595 86.5421L27.2424 81.9743C27.428 81.7459 27.5422 81.5603 27.585 81.4319C27.6278 81.3034 27.6136 81.1749 27.5422 81.0607C27.4708 80.9465 27.3281 80.7895 27.114 80.6039L27.2567 80.4184C27.5279 80.661 27.8991 80.9751 28.3987 81.3605C28.9268 81.7744 29.3265 82.0742 29.5977 82.2598L29.455 82.4453C29.2266 82.2741 29.041 82.1741 28.9126 82.1456C28.7841 82.1028 28.6556 82.117 28.5414 82.2027C28.4272 82.274 28.2702 82.4311 28.0846 82.6595L24.5017 87.2273C24.3162 87.4557 24.202 87.6413 24.1591 87.7697C24.1163 87.8982 24.1306 88.0267 24.202 88.1409C24.2733 88.2551 24.4161 88.4121 24.6302 88.5977L24.4874 88.7832C24.2448 88.5691 23.8594 88.2551 23.3312 87.8268C22.8316 87.4414 22.4319 87.1417 22.1464 86.9418L22.2892 86.7563C22.5318 86.9133 22.7031 87.0132 22.8316 87.056Z" fill="#292F36"/>
<path d="M13.6104 76.8926C13.5533 76.2503 13.696 75.6079 14.0243 74.9941C14.3669 74.366 14.8808 73.8093 15.5945 73.2811C16.294 72.7815 16.9934 72.4532 17.7214 72.3248C18.4494 72.1963 19.1203 72.2391 19.7484 72.4818C20.3765 72.7244 20.9047 73.1384 21.3186 73.7237C21.7611 74.3232 22.0038 74.9513 22.0609 75.5936C22.118 76.236 21.9752 76.8783 21.6469 77.4921C21.3043 78.1202 20.7905 78.6769 20.0767 79.2051C19.3773 79.7047 18.6778 80.033 17.9498 80.1615C17.2361 80.2899 16.5509 80.2471 15.9228 80.0045C15.2948 79.7618 14.7666 79.3478 14.3526 78.7768C13.9101 78.163 13.6675 77.535 13.6104 76.8926ZM15.7515 79.4335C16.2512 79.5334 16.8221 79.4906 17.4502 79.2907C18.0783 79.0909 18.7064 78.7626 19.363 78.2772C20.0196 77.8062 20.5335 77.2923 20.8904 76.7499C21.2615 76.2074 21.4614 75.665 21.4899 75.1511C21.5327 74.6372 21.4043 74.1804 21.133 73.795C20.8333 73.3953 20.4479 73.1384 19.934 73.0385C19.4344 72.9386 18.8634 72.9814 18.2353 73.1812C17.6072 73.3811 16.9792 73.7094 16.3225 74.1804C15.6659 74.6515 15.152 75.1654 14.7952 75.7221C14.424 76.2645 14.2242 76.7927 14.1813 77.3208C14.1385 77.8347 14.267 78.2915 14.5382 78.6769C14.838 79.0766 15.2377 79.3336 15.7515 79.4335Z" fill="#292F36"/>
<path d="M14.7095 59.706C14.8808 59.8345 15.0092 60.0486 15.0949 60.3341C15.1948 60.6339 15.1805 60.9194 15.0663 61.162C14.9521 61.419 14.6809 61.6616 14.267 61.9043L13.2249 62.4895C12.8681 62.7037 12.5968 62.875 12.4113 63.0177C12.2257 63.1605 12.0972 63.3318 12.0259 63.5316C11.9545 63.7314 11.9545 63.9598 12.0401 64.2453L12.3685 65.3159L14.9379 64.5165C15.2234 64.4309 15.4089 64.3452 15.5231 64.2596C15.6373 64.1739 15.6944 64.0598 15.7087 63.9313C15.723 63.8028 15.6801 63.5887 15.6088 63.3175L15.8372 63.2461C15.9228 63.5887 16.0513 64.074 16.2511 64.6736C16.451 65.3159 16.608 65.787 16.7222 66.0867L16.4938 66.1581C16.3939 65.8869 16.3082 65.7013 16.2226 65.6014C16.1369 65.5015 16.0227 65.4301 15.88 65.4301C15.7372 65.4301 15.5231 65.4587 15.2519 65.5586L9.71339 67.2715C9.4279 67.3572 9.24233 67.4428 9.12813 67.5285C9.01394 67.6141 8.95684 67.7283 8.94256 67.8568C8.92829 67.9995 8.97111 68.1994 9.04248 68.4706L8.81409 68.542C8.74272 68.2279 8.61425 67.7711 8.42868 67.1716C8.34303 66.8861 8.22884 66.5578 8.11464 66.2152C8.00044 65.8726 7.9148 65.6299 7.87197 65.5015C7.6864 64.9162 7.62931 64.4023 7.67213 63.9456C7.71495 63.4888 7.8577 63.1176 8.08609 62.8179C8.31448 62.5181 8.61425 62.3183 8.98539 62.2041C9.27088 62.1184 9.58492 62.0899 9.92751 62.1327C10.2701 62.1755 10.5984 62.3183 10.941 62.5752C11.2836 62.8321 11.5691 63.2033 11.8117 63.7029L11.7975 63.5601C11.7546 63.2033 11.7404 62.9178 11.7975 62.6751C11.8546 62.4325 11.9545 62.2326 12.0972 62.0613C12.2543 61.89 12.4826 61.7045 12.7824 61.5332L13.8387 60.9051C14.0528 60.7909 14.2241 60.6767 14.3241 60.591C14.424 60.5054 14.5096 60.4197 14.5525 60.3341C14.5953 60.2484 14.5953 60.1485 14.5667 60.0486C14.5239 59.9201 14.4668 59.8345 14.3812 59.7774C14.2955 59.7203 14.1528 59.6489 13.9529 59.5775L14.0243 59.3634C14.3098 59.4634 14.5525 59.5775 14.7095 59.706ZM11.2979 63.5316C11.0552 63.3032 10.7697 63.1747 10.4699 63.1462C10.1702 63.1176 9.82758 63.1605 9.44217 63.2889C8.82837 63.4745 8.4144 63.7743 8.18601 64.1597C7.95762 64.5451 7.95762 65.0732 8.15746 65.7156C8.22884 65.944 8.31448 66.1153 8.40013 66.2152C8.48578 66.3151 8.61425 66.3722 8.75699 66.3722C8.89974 66.3722 9.11386 66.3294 9.3708 66.258L12.1115 65.4016L11.8831 64.645C11.7404 64.1311 11.5405 63.76 11.2979 63.5316Z" fill="#292F36"/>
<path d="M13.6103 46.1595C14.1527 45.9168 14.481 45.46 14.6238 44.7749C14.6666 44.5179 14.6666 44.261 14.5952 44.0183C14.5239 43.7756 14.3954 43.5615 14.1956 43.376C13.9957 43.1904 13.7245 43.0619 13.3676 43.0048C13.0679 42.9477 12.7967 42.9763 12.5397 43.0762C12.2828 43.1761 12.0258 43.3331 11.7832 43.5473C11.5405 43.7614 11.255 44.0469 10.941 44.4037C10.5841 44.8034 10.2701 45.1317 9.99884 45.3601C9.72763 45.6028 9.42786 45.7741 9.09955 45.9026C8.77124 46.031 8.4001 46.0453 7.98614 45.9739C7.5579 45.8883 7.20104 45.7313 6.94409 45.4743C6.68715 45.2174 6.50158 44.9176 6.41594 44.5607C6.33029 44.2039 6.33029 43.8327 6.40166 43.4331C6.44449 43.1904 6.50158 43.0048 6.57296 42.8335C6.64433 42.6622 6.7157 42.5338 6.80135 42.4338C6.887 42.3339 6.97264 42.2197 7.08684 42.1055C7.22958 41.9485 7.30096 41.8343 7.32951 41.7487C7.34378 41.6773 7.31523 41.6202 7.24386 41.5631C7.17249 41.506 7.04402 41.4632 6.87272 41.4061L6.91555 41.1491C7.35806 41.2633 8.12888 41.4346 9.25657 41.6487L9.21375 41.9057C8.81406 41.8629 8.44292 41.8771 8.07178 41.9628C7.71492 42.0342 7.40088 42.1912 7.14394 42.4338C6.887 42.6622 6.7157 42.9905 6.64433 43.3902C6.58723 43.6615 6.60151 43.9041 6.67288 44.1468C6.74425 44.3895 6.87272 44.575 7.04402 44.732C7.22959 44.8891 7.4437 44.989 7.70064 45.0461C8.11461 45.1175 8.47147 45.0604 8.77124 44.8605C9.071 44.6607 9.35649 44.4037 9.62771 44.104C9.89892 43.8042 10.0702 43.6044 10.1701 43.5044C10.5698 43.0762 10.8981 42.7479 11.1694 42.5052C11.4406 42.2625 11.7403 42.0913 12.0687 41.9771C12.397 41.8629 12.7538 41.8486 13.1392 41.92C13.6103 42.0056 13.9957 42.1912 14.2812 42.4624C14.5667 42.7479 14.7523 43.0762 14.8522 43.4759C14.9521 43.8756 14.9521 44.3038 14.8665 44.7606C14.7951 45.1317 14.7094 45.4172 14.581 45.6456C14.4668 45.874 14.3098 46.0738 14.1385 46.2594C13.9957 46.4164 13.9243 46.5306 13.8958 46.6163C13.8815 46.6877 13.9101 46.7448 13.9814 46.8019C14.0528 46.8589 14.1813 46.916 14.3526 46.9589L14.3098 47.2158C13.8958 47.1016 12.9822 46.916 11.569 46.6591L11.6119 46.4022C12.4112 46.4735 13.0679 46.4022 13.6103 46.1595Z" fill="#292F36"/>
<path d="M10.7839 34.1259C10.3842 33.9118 9.9274 33.712 9.41352 33.5121C9.72756 32.9554 10.2557 31.9848 10.9694 30.6001C11.6832 29.2298 12.1828 28.2591 12.454 27.6739C12.9251 27.9736 13.3533 28.2306 13.7387 28.4304C14.0813 28.616 14.3811 28.7444 14.6094 28.8444L14.481 29.087C13.91 28.8586 13.4818 28.7159 13.182 28.6731C12.8822 28.616 12.611 28.6731 12.3826 28.8158C12.1542 28.9586 11.9258 29.2441 11.7117 29.6723L11.4262 30.2433L17.3216 33.3123C17.6071 33.4693 17.8355 33.5407 17.9925 33.555C18.1495 33.5692 18.2923 33.5264 18.4207 33.4122C18.5492 33.298 18.692 33.0839 18.8633 32.7841L19.0774 32.8983C18.8633 33.2552 18.592 33.7548 18.2495 34.4114C17.8926 35.0966 17.6356 35.6248 17.4786 35.9531L17.2645 35.8389C17.4073 35.5248 17.5072 35.2822 17.5215 35.1252C17.55 34.9539 17.5072 34.8111 17.393 34.6827C17.2788 34.5542 17.0932 34.4257 16.8077 34.2687L10.9123 31.1854L10.6126 31.7421C10.3842 32.1703 10.2843 32.5129 10.2985 32.7841C10.3128 33.0554 10.427 33.298 10.6411 33.5121C10.8552 33.7263 11.2121 34.0117 11.726 34.3401L11.5975 34.5827C11.412 34.4685 11.1265 34.3115 10.7839 34.1259Z" fill="#292F36"/>
<path d="M20.8618 17.7247C21.1044 17.482 21.3043 17.2536 21.447 17.0823L21.6183 17.2536C21.5327 17.3821 21.4899 17.5676 21.5041 17.7818C21.5184 17.9959 21.5755 18.2956 21.6897 18.6525L22.9887 22.5209L24.5018 24.0197C24.7159 24.2196 24.8729 24.3623 25.0014 24.4194C25.1299 24.4765 25.2583 24.4765 25.3868 24.4194C25.5153 24.3623 25.6723 24.2338 25.8864 24.0483L26.0577 24.2196C25.7865 24.4622 25.4296 24.8048 24.9871 25.2473C24.5161 25.7184 24.1735 26.0895 23.9594 26.3322L23.7881 26.1609C23.9736 25.9468 24.1021 25.7898 24.1592 25.6613C24.2163 25.5328 24.2163 25.4044 24.1449 25.2759C24.0878 25.1474 23.9451 24.9761 23.7452 24.7763L22.4891 23.5344L17.7214 22.1355C17.4359 22.0498 17.2218 22.0213 17.079 22.0356C16.9363 22.0498 16.8364 22.0927 16.765 22.164L16.5937 21.9927C16.8221 21.7929 17.079 21.5645 17.336 21.2933C17.8641 20.7509 18.2495 20.3654 18.4637 20.1085L18.635 20.2798C18.2495 20.6652 18.1639 20.965 18.378 21.1791C18.4637 21.2647 18.5779 21.3218 18.7491 21.3789L22.7603 22.6208L21.704 19.4661C21.547 19.0094 21.3899 18.6953 21.2186 18.5383C21.0616 18.3813 20.8903 18.3385 20.7048 18.3956C20.5192 18.4527 20.3051 18.5954 20.0481 18.8381L19.8768 18.6668C20.2194 18.3527 20.5335 18.0387 20.8618 17.7247Z" fill="#292F36"/>
<path d="M29.4978 11.972C29.4121 12.0719 29.3693 12.2004 29.3978 12.3431C29.4264 12.4859 29.4978 12.6857 29.6405 12.9427L32.3955 18.053C32.5382 18.3099 32.6524 18.4812 32.7666 18.5811C32.8666 18.681 32.995 18.7096 33.1235 18.6953C33.252 18.681 33.4518 18.5954 33.6945 18.4669L34.451 18.053C34.8793 17.8246 35.179 17.5819 35.3361 17.3392C35.4931 17.0966 35.5502 16.8253 35.5073 16.497C35.4645 16.1687 35.3361 15.7548 35.1077 15.2123L35.3503 15.0839C35.4502 15.3122 35.593 15.5977 35.7786 15.9403C35.9927 16.3257 36.2496 16.754 36.5637 17.225C36.0926 17.4534 35.2932 17.8674 34.1941 18.4669C32.8808 19.1806 31.8816 19.7231 31.225 20.1085L31.1108 19.9086C31.3535 19.7659 31.5248 19.6374 31.6104 19.5375C31.696 19.4376 31.7389 19.3091 31.7103 19.1664C31.6818 19.0236 31.6104 18.8238 31.4677 18.5668L28.6841 13.4566C28.5414 13.1996 28.4272 13.0283 28.313 12.9284C28.2131 12.8285 28.0846 12.7999 27.9561 12.8142C27.8134 12.8285 27.6278 12.8999 27.3709 13.0283L27.2709 12.8142C27.5707 12.6857 28.0132 12.4573 28.5985 12.129C29.1552 11.8293 29.5834 11.5866 29.8832 11.401L29.9974 11.6009C29.7547 11.7436 29.5977 11.8721 29.4978 11.972Z" fill="#292F36"/>
<path d="M46.8841 12.8854C46.9698 13.3137 47.0983 13.799 47.2553 14.3414C46.7271 14.4271 45.8564 14.5841 44.6288 14.8268C43.1585 15.1123 42.0593 15.3407 41.3028 15.512L41.26 15.2836C41.5312 15.2122 41.731 15.1551 41.8452 15.0694C41.9594 14.9981 42.0308 14.8839 42.0451 14.7554C42.0593 14.6127 42.0451 14.3985 41.988 14.1131L40.8746 8.41749C40.8175 8.132 40.7604 7.93216 40.6747 7.80369C40.5891 7.67522 40.5034 7.60383 40.3607 7.58956C40.2322 7.56101 40.0181 7.57528 39.7469 7.61811L39.704 7.38972C40.4606 7.26125 41.574 7.06141 43.03 6.77592C44.1577 6.54752 44.9571 6.39051 45.4139 6.27631C45.4567 6.79018 45.5281 7.24697 45.5994 7.64667C45.6565 7.94642 45.7136 8.17482 45.7707 8.34612L45.5138 8.40321C45.3568 7.91787 45.214 7.56102 45.0855 7.33262C44.9571 7.10422 44.7715 6.96148 44.5574 6.89011C44.329 6.81873 44.0292 6.81874 43.6153 6.90439L42.6589 7.08995C42.3877 7.14705 42.1878 7.20415 42.0736 7.27553C41.9594 7.3469 41.888 7.44682 41.8595 7.58956C41.8452 7.7323 41.8595 7.94642 41.9166 8.23191L42.4448 10.9441L43.2013 10.7871C43.5867 10.7157 43.8151 10.5444 43.9008 10.2875C43.9864 10.0305 44.015 9.78784 44.0007 9.54517C43.9864 9.3025 43.9721 9.14548 43.9721 9.07411L44.2291 9.01702C44.2719 9.40243 44.329 9.75929 44.4004 10.1019L44.5146 10.6443C44.5859 11.0298 44.7144 11.5722 44.9 12.2574L44.643 12.3145C44.6288 12.2574 44.5717 12.0861 44.4717 11.772C44.3718 11.458 44.2291 11.2439 44.015 11.1154C43.8008 10.9869 43.5582 10.9584 43.2441 11.0155L42.4876 11.1582L43.03 13.9132C43.0871 14.1987 43.1442 14.3985 43.2156 14.527C43.2869 14.6412 43.3869 14.7126 43.5296 14.7411C43.6581 14.7554 43.8722 14.7411 44.1434 14.684L44.9856 14.5127C45.4567 14.4128 45.8135 14.2843 46.0419 14.1131C46.2703 13.9418 46.3988 13.6991 46.4559 13.3993C46.513 13.0996 46.513 12.6713 46.4702 12.1146L46.7271 12.0575C46.7699 12.2716 46.8128 12.5429 46.8841 12.8854Z" fill="#292F36"/>
<path d="M37.2633 67.3999C36.6067 66.5149 36.0357 65.5442 35.5361 64.4736C35.0365 63.403 34.6368 62.3182 34.3371 61.2048C33.6804 56.3086 33.6662 51.5552 34.28 46.9445C34.8938 42.3338 35.893 37.7945 37.2633 33.3123C37.4917 32.8127 37.9913 32.57 38.7622 32.57C39.533 32.57 40.2895 32.7413 41.0604 33.0839C41.8312 33.4265 42.4593 33.8833 42.9589 34.4543C43.4585 35.0253 43.5727 35.6248 43.3015 36.2386C42.8732 37.1522 42.4593 38.3941 42.0453 39.9357C41.6314 41.4916 41.2174 43.2046 40.8463 45.0745C40.4608 46.9445 40.1325 48.9144 39.847 50.9557C39.5615 52.9969 39.3474 54.9668 39.219 56.8368C39.0905 58.7067 39.0619 60.4054 39.1333 61.9185C39.2047 63.4316 39.4331 64.6307 39.8185 65.5014C41.6171 63.089 43.2587 60.591 44.7575 58.0073C46.2563 55.4236 47.6552 52.8113 48.9685 50.142C50.2817 47.4869 51.5379 44.8033 52.7227 42.0769C53.9075 39.3647 55.078 36.6811 56.2199 34.0403C56.7909 32.6985 57.3619 31.2853 57.9186 29.8008C58.4753 28.302 59.2033 27.0315 60.1312 25.9609C60.5166 25.6183 60.8163 25.5042 61.0162 25.6183C61.2303 25.7325 61.373 25.9467 61.4444 26.275C61.5158 26.6033 61.5586 26.9459 61.5586 27.3027C61.5586 27.6596 61.5586 27.9451 61.5586 28.1307C61.2874 29.8864 61.059 31.6279 60.8734 33.3551C60.6879 35.0824 60.2739 36.7382 59.6744 38.3512C58.6752 40.8778 57.6617 43.3759 56.6053 45.8739C55.549 48.3577 54.4213 50.8129 53.2223 53.2253C52.0232 55.6377 50.71 57.9787 49.3253 60.2484C47.9264 62.5323 46.4133 64.702 44.7575 66.7576C43.4585 68.3991 42.1595 69.2699 40.8891 69.3698C39.5615 69.484 38.3768 68.8131 37.2633 67.3999Z" fill="#292F36"/>
<path d="M60.902 60.9193C60.1312 59.8487 59.3747 58.7638 58.6324 57.6504C57.8901 56.537 57.519 55.3237 57.519 53.9819C57.519 52.4973 57.9472 51.0841 58.8037 49.7566C59.6602 48.4434 60.6451 47.3728 61.7585 46.5734C62.2153 46.2736 62.6864 46.0167 63.1574 45.8311C63.6285 45.6455 64.1424 45.6598 64.6848 45.8882C64.9132 46.0024 65.1559 46.0881 65.3985 46.1452C65.6412 46.2023 65.8696 46.2736 66.0552 46.345C66.2407 46.4164 66.4548 46.5306 66.6832 46.6876C66.9116 46.8446 67.0258 47.0445 67.0258 47.3157C67.0258 48.3863 67.0544 49.257 67.1115 49.9279C67.1686 50.5988 67.2542 51.1698 67.3684 51.6551C67.4826 52.1405 67.5968 52.5544 67.711 52.9113C67.8252 53.2824 67.9394 53.6678 68.0536 54.0818C68.125 54.4672 68.1107 54.7955 67.9965 55.0525C67.8823 55.3237 67.5968 55.3522 67.14 55.1667C66.2978 54.8669 65.6697 54.2531 65.27 53.3252C64.8704 52.3974 64.5706 51.5695 64.385 50.7987C64.3422 50.6416 64.2566 50.3847 64.0995 49.9993C63.9425 49.6139 63.8569 49.3427 63.8141 49.1999C63.5143 49.1285 63.1431 49.2285 62.7292 49.5139C62.3152 49.7994 61.9298 50.1991 61.6158 50.6845C61.2875 51.1841 61.0733 51.755 60.9877 52.4117C60.8878 53.0683 61.0162 53.7107 61.3588 54.3673C61.5158 54.5957 61.73 54.8812 62.0155 55.1952C62.3009 55.5235 62.5864 55.8518 62.8719 56.1944C63.1574 56.537 63.4429 56.8796 63.7284 57.1936C64.0139 57.5077 64.2566 57.7789 64.4421 57.9645C64.6705 58.1929 64.8275 58.3213 64.8989 58.3356C64.9703 58.3499 65.1701 58.3071 65.4699 58.1929C65.8553 58.0073 66.4406 57.7504 67.2257 57.4506C68.0108 57.1508 68.8387 56.8368 69.6952 56.537C70.5516 56.2373 71.3796 55.9803 72.1647 55.7662C72.9498 55.5521 73.5493 55.4521 73.9775 55.4521C74.2487 55.4521 74.4343 55.5521 74.5485 55.7376C74.6627 55.8518 74.6484 56.0089 74.4914 56.1944C74.3344 56.38 74.1345 56.5798 73.8919 56.7654C73.6492 56.951 73.378 57.1223 73.121 57.2793C72.8498 57.4363 72.6785 57.522 72.6072 57.5648C71.9505 57.9502 71.1369 58.3784 70.1377 58.8638C69.1385 59.3348 68.282 59.8059 67.554 60.2627C67.4826 60.334 67.3399 60.4197 67.1257 60.4911C66.9116 60.5624 66.7546 60.6481 66.6404 60.7195C67.0972 61.7472 67.4255 62.6465 67.6111 63.3888C67.7966 64.1311 67.868 64.8448 67.8109 65.5442C67.7538 66.2294 67.6111 66.9289 67.3827 67.6426C67.1543 68.3563 66.8402 69.17 66.4691 70.0835C65.9267 70.9686 65.3842 71.8108 64.8275 72.6101C64.2708 73.4095 63.657 74.1375 62.9576 74.7941C62.2724 75.4508 61.5158 75.9647 60.7165 76.3358C59.9171 76.7212 59.0321 76.9068 58.0757 76.9068C57.5333 76.9068 57.0194 76.8354 56.5198 76.7069C56.0202 76.5785 55.6062 76.293 55.2636 75.879C54.3786 74.9226 53.8932 73.8806 53.779 72.7529C53.6649 71.6252 53.7648 70.5118 54.0645 69.3984C54.2929 68.7132 54.5784 68.0851 54.921 67.4999C55.7632 66.0439 56.6911 64.8162 57.7045 63.8028C58.7323 62.8035 59.7886 61.8329 60.902 60.9193ZM62.8577 63.503C62.4294 63.9312 61.8584 64.5308 61.1304 65.3159C60.4024 66.101 59.7315 66.9574 59.0892 67.871C58.4611 68.7846 57.9472 69.6981 57.5475 70.5974C57.1478 71.4967 57.0479 72.2676 57.2335 72.9242C58.0043 72.5816 58.7894 72.0106 59.5888 71.2255C60.3882 70.4404 61.1019 69.5839 61.7157 68.6418C62.3295 67.6997 62.7577 66.7719 63.0004 65.8583C63.2431 64.9304 63.2002 64.1453 62.8577 63.503Z" fill="#292F36"/>
<path d="M51.5949 84.1583C33.7375 84.1583 19.206 69.6268 19.206 51.7694C19.206 33.9119 33.7375 19.3805 51.5949 19.3805C69.4524 19.3805 83.9838 33.9119 83.9838 51.7694C83.9838 69.6268 69.4524 84.1583 51.5949 84.1583ZM51.5949 20.8079C34.5226 20.8079 20.6334 34.697 20.6334 51.7694C20.6334 68.8417 34.5226 82.7308 51.5949 82.7308C68.6673 82.7308 82.5564 68.8417 82.5564 51.7694C82.5564 34.697 68.6673 20.8079 51.5949 20.8079Z" fill="#292F36"/>
</svg>
