<svg width="146" height="45" viewBox="0 0 146 45" fill="none" xmlns="http://www.w3.org/2000/svg">
<path d="M20.6793 9.56697L21.7498 9.33858C22.0211 9.33858 22.2495 9.39568 22.4065 9.50988C22.5635 9.62407 22.6492 9.73827 22.6492 9.83819C22.6492 9.93811 22.6206 10.0951 22.5778 10.2807C22.535 10.4663 22.1353 12.379 21.393 15.9905C20.6507 19.6019 20.1083 22.2998 19.7657 24.0699C21.4215 21.8145 23.3629 19.0452 25.5754 15.7478C27.788 12.4504 29.087 10.2664 29.4581 9.18156C29.5723 8.83897 29.7293 8.58203 29.9149 8.39646C30.1005 8.21089 30.2718 8.0967 30.4145 8.06815C30.5572 8.0396 30.7856 8.01105 31.0854 8.01105C31.3852 8.01105 31.742 8.08242 32.156 8.2109C32.57 8.33937 32.7841 8.55348 32.7841 8.86752C32.7841 9.4385 31.9276 11.1086 30.2289 13.8493C28.5303 16.59 26.5747 19.502 24.3764 22.5853C22.1781 25.6686 20.351 28.1096 18.8807 29.9081C18.6237 30.2222 18.2954 30.3935 17.9243 30.3935C17.5531 30.3935 17.1535 30.3221 16.7395 30.1936C16.3255 30.0652 16.1114 29.8368 16.1114 29.4942C16.1114 28.4236 17.0535 23.2562 18.9378 14.0206C17.3247 16.1047 15.3691 19.0167 13.0709 22.7423C10.6728 26.5965 9.31673 28.9946 9.00269 29.9081C8.8314 30.4649 8.63156 30.7932 8.40316 30.8788C8.24614 30.9502 8.07484 30.9787 7.90355 30.9787L6.74731 31.1072C6.51892 31.1072 6.31907 31.0501 6.11923 30.9216C5.93366 30.7932 5.83374 30.6647 5.83374 30.522C5.83374 30.1365 6.37618 28.966 7.44677 27.0247C8.51736 25.0834 9.78779 22.9707 11.2295 20.6868C12.6713 18.4029 14.1701 16.1903 15.7403 14.0349C17.3105 11.8794 18.5238 10.4234 19.3803 9.69545C19.5516 9.53843 19.7514 9.46705 19.9798 9.46705L20.6793 9.56697Z" fill="#292F36"/>
<path d="M37.8373 19.2452C38.5796 19.2452 38.9507 19.5022 38.9507 20.0018C38.9507 20.273 38.8936 20.4728 38.7652 20.6013C38.6367 20.7298 38.3655 21.1437 37.9515 21.8717C37.5376 22.5855 37.0808 23.499 36.5812 24.6267C36.0815 25.7401 35.7532 26.6965 35.6105 27.4816C35.582 27.5815 35.5677 27.71 35.5677 27.8956C35.5677 28.438 35.7104 28.695 36.0102 28.695C36.31 28.695 36.6525 28.5522 37.0522 28.281C37.4519 27.9955 37.8088 27.71 38.1228 27.3817C38.4368 27.0677 38.7366 26.7393 39.0364 26.411C39.3361 26.0827 39.5075 25.8829 39.5646 25.8401C39.6217 25.7972 39.7073 25.7687 39.8215 25.7687C40.0071 25.7687 40.1213 25.9114 40.1641 26.1969C40.2069 26.4824 40.2212 26.7679 40.2212 27.0819C40.2212 27.396 40.1926 27.5958 40.1355 27.71C39.85 28.2667 39.2362 28.9376 38.2656 29.7227C37.3092 30.5078 36.4242 30.8932 35.6391 30.8932C34.854 30.8932 34.2687 30.6506 33.9118 30.1795C33.555 29.7084 33.3551 29.166 33.3551 28.595C33.3551 28.0098 33.4551 27.5102 33.6549 27.0677C32.8412 28.124 31.9134 29.009 30.8713 29.7513C29.815 30.4793 28.9728 30.8504 28.3019 30.8504C27.631 30.8504 27.1029 30.6506 26.6746 30.2509C26.1322 29.7513 25.8753 29.0661 25.8753 28.1811C25.8753 27.2961 26.0751 26.411 26.4748 25.5117C26.8745 24.6267 27.3884 23.7988 28.0307 23.0708C28.6731 22.3285 29.3868 21.6576 30.1576 21.0581C31.7706 19.7876 33.2695 19.1596 34.6398 19.1596C35.168 19.1596 35.5962 19.2452 35.9245 19.4165C36.2529 19.5878 36.467 19.8162 36.5526 20.0731C36.781 19.7163 36.9809 19.5022 37.1522 19.4022C37.2806 19.288 37.5233 19.2452 37.8373 19.2452ZM35.896 20.8725C34.2259 20.8725 32.4986 21.8004 30.7143 23.656C30.0862 24.3269 29.501 25.1121 28.9586 26.0399C28.4161 26.9677 28.1592 27.5958 28.1592 27.9384C28.1592 28.281 28.2591 28.4523 28.459 28.4523C28.7302 28.4523 29.4867 27.9099 30.7429 26.8393C31.999 25.7687 32.827 24.9693 33.2267 24.4554C33.6834 23.8844 34.5685 22.6854 35.896 20.8725Z" fill="#292F36"/>
<path d="M48.943 11.5083L49.5425 11.651C49.6281 11.651 49.7138 11.6938 49.7709 11.7795C49.8423 11.8651 49.8708 11.9508 49.8708 12.0221C49.8708 12.0935 49.7709 12.3076 49.5568 12.6502C49.3427 12.9928 49.1143 13.3782 48.8288 13.8065C48.5433 14.2347 48.4005 14.4774 48.3863 14.5202C49.1428 14.4631 49.6852 14.4345 49.9993 14.4345C50.3133 14.4345 50.5274 14.4631 50.6559 14.5059C50.7701 14.5487 50.9128 14.6772 51.0556 14.8771C51.2126 15.0769 51.3411 15.2339 51.4696 15.3338C51.598 15.4338 51.6551 15.5908 51.6551 15.7906C51.6551 15.9905 51.5267 16.176 51.284 16.3045C51.0413 16.4473 50.7701 16.5329 50.4846 16.5615C48.215 16.7898 46.9731 16.904 46.7447 16.9183C45.9596 18.1317 44.8462 20.0159 43.433 22.571C42.0198 25.1262 41.2633 26.7392 41.1776 27.3815C41.1348 27.6813 41.1205 27.9097 41.1205 28.0953C41.1205 28.4807 41.3204 28.6663 41.7201 28.6663C42.1197 28.6663 42.5622 28.5092 43.0476 28.2095C43.5329 27.8954 43.9897 27.5671 44.3894 27.2103C45.4885 26.2396 46.0738 25.74 46.1452 25.74C46.4021 25.74 46.5306 26.1825 46.5306 27.0532C46.5306 27.5243 46.3165 27.9525 45.8739 28.3379C44.889 29.1801 44.0611 29.8225 43.3902 30.2507C42.7193 30.679 42.0484 30.8931 41.3632 30.8931C41.2204 30.8931 41.0777 30.8788 40.9492 30.8503C40.1641 30.7075 39.5931 30.422 39.2363 29.9938C38.8651 29.5656 38.6939 28.9946 38.6939 28.2808C38.6939 27.5671 38.908 26.6821 39.3362 25.6543C39.7644 24.6266 40.2926 23.5274 40.935 22.3712C41.9913 20.4727 43.0476 18.7026 44.0896 17.0468L43.5329 17.1182C42.4052 17.2466 41.7486 17.3037 41.563 17.3037H41.4346C41.1491 17.3037 40.8779 17.2466 40.6209 17.1324C40.364 17.0182 40.2212 16.8755 40.2212 16.7185C40.2212 16.5472 40.2926 16.3902 40.4354 16.2331C40.5781 16.0761 40.6637 15.9476 40.6923 15.862C40.7637 15.6479 41.0206 15.4052 41.4631 15.1483C41.9056 14.8913 42.2339 14.7486 42.4623 14.7343C42.6907 14.72 42.9048 14.7058 43.119 14.6915C43.3331 14.6772 43.5615 14.6772 43.8184 14.6629C44.0754 14.6487 44.2752 14.6487 44.4179 14.6344L45.7312 14.5773C46.5448 13.3497 47.1158 12.5503 47.4156 12.2077C47.7296 11.8509 47.9009 11.6653 47.9438 11.6367C47.9866 11.6082 48.0865 11.5796 48.2435 11.5796L48.943 11.5083Z" fill="#292F36"/>
<path d="M57.7216 25.7686C57.9072 25.7686 58.0214 25.9114 58.0642 26.1969C58.107 26.4824 58.1213 26.7678 58.1213 27.0819C58.1213 27.3959 58.0927 27.5958 58.0356 27.71C57.7501 28.2524 57.1364 28.9233 56.18 29.7084C55.2236 30.4935 54.31 30.8932 53.4535 30.8932C52.9254 30.8932 52.44 30.7362 51.9832 30.4221C51.5407 30.1081 51.3123 29.5514 51.3123 28.7663C51.3123 27.9812 51.5265 27.1961 51.9404 26.4395C49.5138 29.48 47.6295 30.9931 46.2449 30.9931C45.7024 30.9931 45.2599 30.7933 44.9174 30.4079C44.5748 30.0224 44.4177 29.6228 44.4177 29.1945C44.4177 28.7806 44.4748 28.3523 44.589 27.9098C44.7032 27.4673 44.8317 27.0676 44.9602 26.7108C45.0886 26.3539 45.2885 25.9257 45.5454 25.4118C45.8024 24.8979 46.0022 24.5267 46.1164 24.2841C46.2306 24.0414 46.4447 23.6988 46.7302 23.2278C47.0157 22.7567 47.3726 22.1143 47.8293 21.315C48.2861 20.5156 48.6573 19.9161 48.957 19.5307C49.2568 19.1452 49.5423 18.9454 49.8278 18.9454C50.1133 18.9454 50.3559 19.0596 50.5701 19.288C50.7842 19.5164 50.8984 19.7162 50.8984 19.859C50.8984 20.0017 50.5701 20.6583 49.9134 21.8289C47.9864 25.3261 47.0157 27.3531 47.0157 27.9384C47.0157 28.0811 47.0728 28.1525 47.1727 28.1525C47.6438 28.1525 48.8143 27.139 50.67 25.112C52.5257 23.085 53.6105 21.786 53.9103 21.2151C54.2101 20.6441 54.4813 20.1587 54.7668 19.7733C55.038 19.3879 55.2521 19.1452 55.3949 19.0596C55.8088 18.7884 56.3512 18.6456 57.0222 18.6171C57.1363 18.6171 57.2077 18.6171 57.2648 18.6314C57.3219 18.6456 57.3933 18.7313 57.4647 18.874C57.536 19.0168 57.5789 19.1452 57.5789 19.2452C57.4932 19.5164 57.1078 20.2444 56.4083 21.4292C55.7232 22.614 55.3378 23.2849 55.2664 23.4276C54.1102 25.8115 53.5392 27.3674 53.5392 28.0811C53.5392 28.4951 53.6962 28.6949 54.0102 28.6949C54.5812 28.6235 55.2664 28.1668 56.0658 27.3388C56.3655 27.0391 56.651 26.725 56.9365 26.411C57.222 26.0969 57.4076 25.9114 57.4647 25.8686C57.536 25.7972 57.6217 25.7686 57.7216 25.7686Z" fill="#292F36"/>
<path d="M61.9612 22.3856C64.2594 19.7733 66.2293 18.4601 67.8424 18.4601C68.242 18.4601 68.5704 18.5743 68.8273 18.8169C69.0842 19.0596 69.2127 19.3594 69.2127 19.7448C69.2127 20.1302 68.9415 20.7583 68.3991 21.6576C67.8566 22.5426 67.357 23.2991 66.9002 23.913C66.6576 24.227 66.3863 24.384 66.0723 24.384C65.7725 24.384 65.5299 24.2698 65.3586 24.0414C65.1873 23.813 65.1017 23.5561 65.1017 23.2563C65.1017 22.5854 65.4585 21.8146 66.1865 20.9724L66.158 20.9439C65.8296 20.9724 65.0445 21.6148 63.7598 22.8424C62.4894 24.0842 61.4045 25.1977 60.5052 26.1683C59.6202 27.1533 58.6495 28.3381 57.5932 29.7512C57.2935 30.1652 57.0365 30.3793 56.8224 30.3793C56.6083 30.3793 56.3371 30.3079 55.9945 30.1795C55.6519 30.051 55.4378 29.9511 55.3664 29.894C55.295 29.8369 55.2522 29.737 55.2522 29.5942C55.2522 29.4657 55.295 29.2945 55.3664 29.1232C55.4378 28.9376 55.5948 28.6806 55.7946 28.3523C55.9945 28.024 56.3228 27.4816 56.751 26.7393C57.1793 25.997 57.8359 24.8694 58.7352 23.3705C59.6345 21.8717 60.1627 20.9581 60.3482 20.6441C60.7194 20.0017 61.0191 19.5307 61.2618 19.2452C61.7043 18.6885 62.4466 18.4173 63.4886 18.4173C63.717 18.4173 63.8455 18.56 63.8455 18.8598C63.8455 19.3166 63.4172 20.1873 62.5751 21.4435L61.9612 22.3856Z" fill="#292F36"/>
<path d="M77.7061 19.4164C77.7061 20.0588 77.4492 20.6298 76.921 21.1151C76.3929 21.6004 75.8076 21.8431 75.1367 21.8431C74.9226 21.8431 74.7799 21.786 74.7085 21.6861C74.6371 21.5862 74.6085 21.4434 74.6085 21.2864C74.6085 21.1294 74.6228 20.9581 74.6657 20.801C74.3088 20.9152 73.9234 21.1008 73.4951 21.3435C73.0669 21.5861 72.5387 21.943 71.9107 22.4283C71.2826 22.9137 70.9686 23.2563 70.9686 23.4989C70.9686 23.5703 71.0827 23.6131 71.3111 23.6131C71.5395 23.6131 71.8964 23.5275 72.3675 23.3705C72.8385 23.2134 73.1811 23.1278 73.3667 23.1278C73.5522 23.1278 73.6807 23.1421 73.7378 23.1563C73.8663 23.2277 73.9948 23.3705 74.1518 23.5989C74.2945 23.8273 74.3659 24.0128 74.3659 24.1413C74.3659 24.2698 74.2374 24.4411 73.9805 24.6552C73.7235 24.8693 73.438 25.0263 73.124 25.1405C72.7957 25.2547 72.5816 25.3404 72.4817 25.3974C70.4261 26.5537 69.3983 27.3388 69.3983 27.767C69.3983 28.5236 70.0407 28.909 71.3397 28.909C72.1676 28.909 73.0098 28.652 73.8377 28.1239C74.5515 27.6814 75.1938 27.2246 75.7648 26.7535C76.3358 26.2967 76.6926 26.0113 76.8497 25.8971C77.0067 25.7829 77.1209 25.74 77.1923 25.74C77.4492 25.74 77.5777 26.0255 77.5777 26.5965C77.5777 27.1675 77.5491 27.5386 77.4777 27.7099C77.4064 27.8955 77.2208 28.1096 76.8925 28.3808C74.8084 30.0795 72.8242 30.936 70.9686 30.936C69.9693 30.936 69.1842 30.7932 68.5847 30.522C67.4856 30.0224 66.9431 29.2659 66.9431 28.2381C66.9431 26.8963 67.871 25.8685 69.7409 25.1833C69.3698 25.012 69.1271 24.8122 69.0272 24.541C68.913 24.284 68.8702 23.8701 68.8702 23.2991C68.8702 22.7281 69.1414 22.1286 69.6696 21.4862C70.1977 20.8439 70.8543 20.3157 71.6252 19.916C73.3381 18.9882 74.8798 18.5314 76.2216 18.5314C76.5499 18.5314 76.8639 18.6028 77.2065 18.7598C77.5491 18.9168 77.7061 19.1309 77.7061 19.4164Z" fill="#292F36"/>
<path d="M111.023 9.48142H111.208C111.266 9.48142 111.308 9.48142 111.323 9.49569C111.337 9.50996 111.351 9.50997 111.38 9.52424C111.408 9.52424 111.423 9.53851 111.451 9.56706C111.494 9.60989 111.565 9.65271 111.651 9.69553C111.765 9.78118 111.822 9.8811 111.822 9.9953C111.822 10.1095 111.708 10.3522 111.48 10.7233C111.251 11.0944 110.666 11.9937 109.71 13.4497C107.526 16.7899 105.57 19.9018 103.843 22.7567C100.859 27.7242 99.3463 30.2223 99.3178 30.2508C99.2892 30.2794 99.2749 30.3079 99.2606 30.3365C99.2464 30.3936 99.2178 30.4221 99.1464 30.4221L98.9466 30.3793L98.5469 30.4792L98.3185 30.4364L98.0759 30.4792H97.9902L97.1766 30.5934C96.6912 30.5934 96.4486 30.4221 96.4486 30.0938C96.4486 29.9511 96.4914 29.7798 96.577 29.5799C96.8768 28.8662 98.4042 26.2825 101.145 21.8003C99.3463 21.8431 97.562 21.8717 95.8062 21.8717L92.6658 21.8574C92.1519 22.6853 91.4382 23.8558 90.5389 25.3832C88.5976 28.7092 87.5698 30.3793 87.4413 30.4078C87.3129 30.4364 87.2129 30.4649 87.1273 30.4649C87.0416 30.4649 86.9703 30.4221 86.9132 30.3222C86.8418 30.2366 86.799 30.1794 86.7704 30.1794C86.7419 30.1794 86.699 30.1937 86.6134 30.2365C86.542 30.2794 86.4278 30.2936 86.2708 30.2936L85.9282 30.2794L85.7998 30.1937C85.7855 30.1937 85.7712 30.208 85.7569 30.2365C85.7427 30.2651 85.6998 30.2794 85.6427 30.2794C85.2288 30.2794 85.0147 30.1081 85.0147 29.7512C85.0147 29.5228 85.1003 29.2088 85.2573 28.8234C85.4286 28.438 85.6427 28.024 85.914 27.5815C86.1852 27.139 86.8703 26.0684 87.998 24.3983C89.1114 22.7281 89.6682 21.8859 89.6682 21.8717C89.4826 21.8574 89.2685 21.8574 89.0258 21.8431C88.5262 21.8431 88.1836 21.8288 87.9695 21.786C87.4128 21.6861 87.0274 21.2293 86.8275 20.4157C86.7133 20.016 86.6705 19.759 86.6848 19.6306C86.6848 19.3736 86.799 19.2309 87.0274 19.2309L87.4128 19.3308C87.6126 19.3451 88.0694 19.3594 88.8117 19.4022C89.554 19.445 90.0821 19.4593 90.4104 19.4593L91.2384 19.4307C92.5088 17.4466 94.0219 15.1912 95.7919 12.6789C94.5072 13.7352 93.0798 14.2633 91.5096 14.2633C90.7673 14.2633 90.1249 14.092 89.5968 13.7352C89.0543 13.3783 88.7974 12.9215 88.7974 12.3791C88.7974 11.8367 88.9973 11.4084 89.4112 11.0801C89.8252 10.7661 90.2106 10.6091 90.5817 10.6091C90.9529 10.6091 91.1384 10.6662 91.1384 10.7804C91.1384 10.8232 91.0813 10.866 90.9814 10.9088C90.8815 10.9659 90.8244 11.0088 90.8244 11.0516C90.8244 11.2086 90.9957 11.3513 91.3383 11.4655C91.6809 11.5797 92.0663 11.6511 92.4945 11.6511C92.9227 11.6511 93.4366 11.5226 94.0647 11.28C94.6928 11.0373 95.3351 10.709 96.006 10.3236C96.9482 9.78118 97.6904 9.32439 98.2329 8.96753C98.5469 8.81051 98.8324 8.73914 99.1179 8.73914C99.4034 8.73914 99.589 8.76769 99.7174 8.83906C99.8459 8.89616 99.9315 8.96753 99.9886 9.02463C100.046 9.08173 100.117 9.16738 100.174 9.2673C100.246 9.36722 100.303 9.45287 100.374 9.49569C100.431 9.55279 100.474 9.60989 100.474 9.68126C100.474 9.75263 100.431 9.85255 100.36 10.0096C100.288 10.1523 99.9173 10.7518 99.2464 11.7939C98.5755 12.8359 97.7047 14.1634 96.6484 15.7764C95.5921 17.3895 94.8213 18.5743 94.3359 19.3451C96.9482 19.3451 99.7603 19.3023 102.786 19.2023C106.469 13.3926 108.411 10.3522 108.61 10.0667C108.81 9.78118 108.996 9.59561 109.167 9.50996C109.338 9.42432 109.538 9.38149 109.781 9.38149L111.023 9.48142Z" fill="#292F36"/>
<path d="M115.791 19.2166C116.09 19.2166 116.39 19.3451 116.69 19.6163C117.004 19.8875 117.147 20.2872 117.147 20.8296C117.147 21.372 116.961 22.0715 116.576 22.9422C116.19 23.7987 115.676 24.6837 115.005 25.583C114.349 26.4681 113.607 27.3103 112.821 28.0954C112.022 28.8805 111.166 29.5228 110.252 30.0224C109.324 30.522 108.496 30.779 107.74 30.779C106.983 30.779 106.384 30.5363 105.927 30.0652C105.47 29.5942 105.242 28.9375 105.242 28.0954C105.242 27.2532 105.456 26.311 105.87 25.2975C106.284 24.2698 106.812 23.3705 107.469 22.5854C108.125 21.8003 108.825 21.1008 109.595 20.4727C111.18 19.188 112.579 18.56 113.778 18.56C114.32 18.56 114.72 18.6884 114.991 18.9597C115.091 19.0453 115.134 19.1309 115.134 19.188V19.2737C115.291 19.2166 115.505 19.2166 115.791 19.2166ZM114.32 21.1579H114.22C113.878 21.1579 113.706 20.9153 113.706 20.4157C112.993 20.644 112.251 21.058 111.465 21.6433C110.68 22.2285 109.981 22.928 109.367 23.7273C108.111 25.3261 107.483 26.6822 107.469 27.7813C107.469 28.3237 107.668 28.595 108.068 28.595C108.468 28.595 109.067 28.3237 109.852 27.8099C110.637 27.296 111.423 26.5394 112.208 25.5545C112.979 24.5838 113.564 23.7273 113.949 23.0136C114.335 22.2999 114.534 21.8146 114.534 21.5433C114.52 21.2864 114.449 21.1579 114.32 21.1579Z" fill="#292F36"/>
<path d="M116.833 30.4506L116.119 30.4221H115.862C115.762 30.3935 115.662 30.3364 115.548 30.2508C115.434 30.1651 115.348 30.0938 115.291 30.0652C115.234 30.0367 115.205 29.951 115.205 29.8511C115.205 29.7512 115.248 29.5656 115.32 29.3229C117.218 25.1405 119.059 21.786 120.844 19.2879C121.044 19.0167 121.358 18.8026 121.786 18.6598C122.214 18.5171 122.642 18.4457 123.056 18.4457C123.299 18.4457 123.427 18.6313 123.427 19.0167C123.427 19.1309 123.385 19.2737 123.313 19.445C123.242 19.6305 123.042 19.916 122.728 20.33C122.414 20.7439 122.043 21.215 121.615 21.7289C121.186 22.2428 120.944 22.5568 120.887 22.6424C122.228 21.2578 123.427 20.2301 124.512 19.5449C125.597 18.874 126.368 18.5314 126.853 18.5314C127.339 18.5314 127.71 18.6741 127.967 18.9453C128.224 19.2166 128.352 19.5163 128.352 19.8304C128.352 20.1444 128.324 20.4156 128.281 20.6155C128.238 20.8296 128.152 21.0437 128.038 21.2721C127.924 21.5005 127.824 21.7003 127.738 21.8573C127.653 22.0144 127.51 22.2285 127.324 22.4854C127.125 22.7424 126.996 22.9279 126.925 23.0279C126.853 23.1278 126.696 23.3133 126.468 23.5846C126.24 23.8558 126.111 24.0128 126.097 24.0413C126.368 23.7701 126.753 23.3704 127.239 22.828C127.724 22.2856 128.138 21.8431 128.481 21.4862C128.823 21.1293 129.237 20.7154 129.751 20.2586C130.265 19.8018 130.736 19.4307 131.164 19.1595C132.221 18.5028 133.291 18.1602 134.376 18.1602C134.747 18.1602 135.061 18.2744 135.318 18.5171C135.575 18.7598 135.704 19.031 135.704 19.3593C135.704 19.6876 135.304 20.4727 134.519 21.7003C133.734 22.9279 132.934 24.1698 132.149 25.4117C131.364 26.6536 130.964 27.4387 130.964 27.767C130.964 28.2095 131.05 28.4807 131.207 28.5664C131.378 28.652 131.578 28.6806 131.807 28.6663C132.035 28.652 132.378 28.495 132.792 28.2095C133.22 27.924 133.591 27.6385 133.919 27.3245C134.462 26.8392 134.947 26.3681 135.418 25.9113C135.518 25.8257 135.618 25.7828 135.746 25.7828C135.932 25.7828 136.046 25.9256 136.089 26.2111C136.132 26.4966 136.146 26.7821 136.146 27.0961C136.146 27.4101 136.118 27.61 136.06 27.7242C135.775 28.2666 135.147 28.9375 134.19 29.7369C133.22 30.522 132.292 30.9217 131.407 30.9217C131.293 30.9217 131.221 30.9217 131.179 30.9074C130.179 30.8075 129.48 30.5363 129.094 30.0795C128.709 29.6227 128.523 29.0803 128.523 28.4665C128.523 27.8527 128.738 27.0818 129.166 26.1968C129.594 25.3118 130.051 24.4981 130.565 23.7844C131.079 23.0707 131.535 22.4141 131.964 21.8288C132.392 21.2435 132.606 20.9295 132.606 20.8867C132.606 20.8439 132.563 20.8153 132.492 20.8153C132.192 20.8153 131.521 21.3006 130.465 22.2856C128.68 23.9557 127.139 25.5687 125.84 27.1104C125.497 27.5243 124.684 28.5521 123.413 30.2222C123.27 30.4221 123.028 30.522 122.714 30.522C122.4 30.522 122.071 30.4649 121.729 30.3364C121.386 30.2079 121.215 30.0509 121.215 29.8654C121.215 29.7654 121.986 28.3951 123.542 25.7543C125.098 23.1135 125.868 21.6718 125.868 21.4434C125.868 21.2007 125.726 21.0865 125.44 21.0865C125.155 21.0865 124.555 21.5148 123.656 22.3712C121.186 24.7265 119.274 27.0818 117.918 29.4086C117.832 29.5513 117.661 29.7654 117.404 30.0509C117.147 30.3364 116.918 30.4506 116.833 30.4506Z" fill="#292F36"/>
<path d="M145.139 19.4164C145.139 20.0588 144.882 20.6298 144.354 21.1151C143.826 21.6004 143.24 21.8431 142.57 21.8431C142.355 21.8431 142.213 21.786 142.141 21.6861C142.07 21.5862 142.041 21.4434 142.041 21.2864C142.041 21.1294 142.056 20.9581 142.098 20.801C141.742 20.9152 141.356 21.1008 140.928 21.3435C140.5 21.5861 139.972 21.943 139.344 22.4283C138.715 22.9137 138.401 23.2563 138.401 23.4989C138.401 23.5703 138.516 23.6131 138.744 23.6131C138.972 23.6131 139.329 23.5275 139.8 23.3705C140.271 23.2134 140.614 23.1278 140.8 23.1278C140.985 23.1278 141.114 23.1421 141.171 23.1563C141.299 23.2277 141.428 23.3705 141.585 23.5989C141.727 23.8273 141.799 24.0128 141.799 24.1413C141.799 24.2698 141.67 24.4411 141.413 24.6552C141.156 24.8693 140.871 25.0263 140.557 25.1405C140.229 25.2547 140.014 25.3404 139.914 25.3974C137.859 26.5537 136.831 27.3388 136.831 27.767C136.831 28.5236 137.474 28.909 138.773 28.909C139.6 28.909 140.443 28.652 141.271 28.1239C141.984 27.6814 142.627 27.2246 143.198 26.7535C143.769 26.2967 144.125 26.0113 144.283 25.8971C144.44 25.7829 144.554 25.74 144.625 25.74C144.882 25.74 145.011 26.0255 145.011 26.5965C145.011 27.1675 144.982 27.5386 144.911 27.7099C144.839 27.8955 144.654 28.1096 144.325 28.3808C142.241 30.0795 140.257 30.936 138.401 30.936C137.402 30.936 136.617 30.7932 136.018 30.522C134.918 30.0224 134.376 29.2659 134.376 28.2381C134.376 26.8963 135.304 25.8685 137.174 25.1833C136.803 25.012 136.56 24.8122 136.46 24.541C136.346 24.284 136.303 23.8701 136.303 23.2991C136.303 22.7281 136.574 22.1286 137.102 21.4862C137.631 20.8439 138.287 20.3157 139.058 19.916C140.771 18.9882 142.313 18.5314 143.654 18.5314C143.983 18.5314 144.297 18.6028 144.639 18.7598C144.982 18.9168 145.139 19.1309 145.139 19.4164Z" fill="#292F36"/>
<path d="M0.437988 34.4046C4.19219 35.9748 8.01776 37.1882 11.9147 38.116C15.7831 39.0867 19.7229 39.7719 23.6627 40.2001C25.6326 40.4713 27.6167 40.4999 29.5723 40.6854C31.5565 40.6997 33.5264 40.8567 35.4963 40.7425L38.4511 40.6712C39.436 40.6569 40.421 40.5284 41.4059 40.4713C42.3909 40.3857 43.3758 40.3428 44.3465 40.2144L47.2727 39.8004C51.1982 39.3722 55.0095 38.4586 58.8066 37.3595C62.6464 36.3031 66.2722 34.9042 70.112 33.4482C74.0375 32.0065 78.2913 31.0644 82.6022 31.5212C84.7291 31.7924 86.8703 32.4776 88.6118 33.7337C90.3676 34.9756 91.6237 36.7457 92.4231 38.6013C91.224 36.9455 89.7252 35.5894 87.998 34.7472C86.2708 33.905 84.3723 33.5624 82.488 33.6195C78.6767 33.6766 74.9225 34.9471 71.3967 36.5458C67.8138 38.3159 63.9311 39.9146 60.0199 41.2421C56.0801 42.5126 52.0119 43.5261 47.8865 44.0399C39.6787 45.1248 31.271 45.1391 23.1631 43.4975C19.0948 42.7552 15.1265 41.599 11.2866 40.1287C7.47532 38.6013 3.74968 36.817 0.437988 34.4046Z" fill="#292F36"/>
<path d="M136.945 10.6376C133.762 9.28154 130.522 8.22522 127.239 7.3973C123.97 6.52655 120.658 5.91275 117.332 5.48452C115.676 5.22757 113.992 5.17048 112.336 4.97063C110.666 4.92781 109.01 4.75651 107.34 4.82789C106.512 4.84216 105.67 4.84216 104.842 4.82789C104.014 4.82789 103.172 4.91353 102.344 4.94208C101.516 4.99918 100.674 5.01346 99.8459 5.0991L97.3622 5.39887C94.0362 5.67008 90.8102 6.35526 87.5841 7.19746C84.3153 7.98256 81.2177 9.09597 77.9203 10.2094C74.5372 11.337 70.8686 12.0222 67.1858 11.5083C65.3729 11.2086 63.5458 10.5662 62.1041 9.42428C60.6338 8.2966 59.6346 6.75495 59.0208 5.14192C60.0343 6.5551 61.2904 7.71134 62.7322 8.42507C64.1739 9.1388 65.7583 9.43856 67.3428 9.42428C70.5403 9.42428 73.7093 8.39652 76.7069 7.11181C79.7617 5.65581 83.1162 4.3711 86.4564 3.31479C89.8252 2.30129 93.3367 1.53046 96.8483 1.15933C103.857 0.417052 111.023 0.588346 117.889 2.21565C121.329 2.94365 124.684 4.05706 127.895 5.42742C131.121 6.82632 134.233 8.45362 136.945 10.6376Z" fill="#292F36"/>
</svg>
