<svg width="132" height="43" viewBox="0 0 132 43" fill="none" xmlns="http://www.w3.org/2000/svg">
<path d="M12.1337 0.585938V0.771508L11.3629 0.957076V9.17921L12.1337 9.36478V9.55035H8.47946V9.36478L9.2503 9.17921V2.17041L6.2241 9.67882H5.83866L1.91317 2.17041V8.97937L2.94093 9.36478V9.55035H0.5V9.36478L1.52777 8.97937V0.957076L0.756931 0.771508V0.585938H2.35567C2.59834 0.585938 2.81246 0.614486 2.98376 0.671584C3.15505 0.728683 3.32637 0.800054 3.45484 0.899976C3.59758 0.999898 3.71178 1.1141 3.8117 1.24257C3.91162 1.37104 3.99728 1.52806 4.08292 1.68508L6.88072 7.03803L9.0219 1.68508C9.09327 1.49951 9.16466 1.34249 9.26459 1.21402C9.35023 1.08555 9.4644 0.971352 9.59287 0.87143C9.72134 0.771508 9.87839 0.700133 10.064 0.657309C10.2495 0.614485 10.4779 0.585938 10.7634 0.585938H12.1337Z" fill="#292F36"/>
<path d="M16.7015 2.96985C17.2297 2.96985 17.715 3.04122 18.129 3.19824C18.543 3.35526 18.8998 3.58365 19.1996 3.86915C19.4994 4.16891 19.7135 4.52577 19.8705 4.93974C20.0275 5.3537 20.0989 5.83903 20.0989 6.36719C20.0989 6.89535 20.0275 7.38068 19.8705 7.79464C19.7135 8.2086 19.4851 8.56547 19.1996 8.86523C18.8998 9.165 18.543 9.37912 18.129 9.53614C17.715 9.69316 17.2297 9.76453 16.7015 9.76453C16.1734 9.76453 15.6881 9.69316 15.2741 9.53614C14.8601 9.37912 14.5033 9.15072 14.2035 8.86523C13.9037 8.56547 13.6896 8.2086 13.5326 7.79464C13.3756 7.38068 13.3042 6.89535 13.3042 6.36719C13.3042 5.83903 13.3756 5.3537 13.5326 4.93974C13.6896 4.52577 13.918 4.16891 14.2035 3.86915C14.5033 3.56938 14.8601 3.35526 15.2741 3.19824C15.6881 3.04122 16.1591 2.96985 16.7015 2.96985ZM16.7015 9.52186C16.8443 9.52186 16.987 9.47904 17.1441 9.37912C17.2868 9.2792 17.4153 9.12217 17.5294 8.87951C17.6436 8.63684 17.7436 8.3228 17.815 7.92311C17.8863 7.50915 17.9291 6.99527 17.9291 6.38146C17.9291 5.75338 17.8863 5.2395 17.815 4.83981C17.7436 4.44013 17.6436 4.11181 17.5294 3.88342C17.4153 3.65503 17.2868 3.48374 17.1441 3.38381C17.0013 3.28389 16.8586 3.24107 16.7015 3.24107C16.5588 3.24107 16.4161 3.28389 16.259 3.38381C16.1163 3.48374 15.9878 3.64075 15.8736 3.88342C15.7594 4.12609 15.6595 4.44013 15.5881 4.83981C15.5168 5.25378 15.4739 5.76766 15.4739 6.38146C15.4739 7.00954 15.5168 7.52343 15.5881 7.92311C15.6595 8.3228 15.7594 8.65112 15.8736 8.87951C15.9878 9.1079 16.1163 9.2792 16.259 9.37912C16.4018 9.46476 16.5445 9.52186 16.7015 9.52186Z" fill="#292F36"/>
<path d="M26.3369 0.585938C27.1078 0.585938 27.4932 0.971349 27.4932 1.74218V9.19349L28.264 9.37905V9.56462H27.1078C26.7937 9.56462 26.551 9.5218 26.3655 9.42188C26.1799 9.32196 26.0229 9.20776 25.923 9.09356C25.7945 8.95082 25.6946 8.77952 25.6375 8.60823C25.5233 8.83662 25.3805 9.02219 25.2092 9.19349C25.0665 9.33623 24.8666 9.4647 24.624 9.59317C24.3813 9.72164 24.0958 9.77874 23.7675 9.77874C23.3964 9.77874 23.0538 9.70737 22.7397 9.56462C22.4114 9.42188 22.1402 9.20776 21.9118 8.92227C21.6834 8.63678 21.4836 8.27991 21.3551 7.86595C21.2124 7.43772 21.1553 6.95238 21.1553 6.3814C21.1553 5.81042 21.2267 5.32509 21.3551 4.89685C21.4979 4.46861 21.6834 4.12603 21.9404 3.84054C22.183 3.55504 22.4828 3.34093 22.8254 3.19818C23.168 3.05543 23.5534 2.98406 23.9816 2.98406C24.21 2.98406 24.4099 3.01261 24.5954 3.05543C24.781 3.11253 24.938 3.16963 25.0665 3.241C25.2235 3.31238 25.352 3.39802 25.4662 3.49795V0.9999L24.6954 0.81433V0.628762H26.3369V0.585938ZM25.4376 3.86908C25.3377 3.76916 25.2521 3.68352 25.1379 3.61214C25.038 3.54077 24.938 3.48367 24.8238 3.42657C24.7096 3.36947 24.5954 3.3552 24.467 3.3552C24.31 3.3552 24.1529 3.39802 24.0102 3.48367C23.8674 3.56932 23.7532 3.71206 23.639 3.92618C23.5391 4.1403 23.4535 4.45434 23.3964 4.83975C23.3393 5.23944 23.3107 5.73905 23.3107 6.36713C23.3107 6.98093 23.3393 7.46627 23.3964 7.85168C23.4535 8.23709 23.5249 8.53686 23.6248 8.75097C23.7104 8.96509 23.8104 9.12211 23.9388 9.19349C24.053 9.26486 24.1672 9.30768 24.2814 9.30768C24.4812 9.30768 24.6525 9.25058 24.7953 9.15066C24.938 9.05074 25.0522 8.92227 25.1521 8.7938C25.2663 8.63678 25.3663 8.46548 25.4519 8.27991V3.86908H25.4376Z" fill="#292F36"/>
<path d="M32.5605 9.77881C31.4614 9.77881 30.6049 9.47905 30.0054 8.87952C29.3916 8.27998 29.0918 7.43779 29.0918 6.38147C29.0918 5.85331 29.1632 5.36798 29.3202 4.95402C29.4772 4.54006 29.6913 4.18319 29.9626 3.88343C30.2338 3.58366 30.5621 3.36955 30.9618 3.21253C31.3472 3.05551 31.7754 2.98413 32.2465 2.98413C32.7318 2.98413 33.1601 3.05551 33.5312 3.18398C33.9166 3.32672 34.2306 3.51229 34.5019 3.74068C34.7731 3.96908 34.9729 4.24029 35.1157 4.55433C35.2584 4.86837 35.3298 5.19669 35.3298 5.55355C35.3298 5.66774 35.3298 5.78194 35.3155 5.86759C35.3012 5.95324 35.287 6.03888 35.2727 6.11026C35.2441 6.1959 35.2298 6.26728 35.2013 6.32437C34.8302 6.39575 34.4305 6.46712 34.0022 6.50994C33.6454 6.56704 33.2314 6.60986 32.7604 6.63841C32.2893 6.66696 31.804 6.69551 31.2901 6.69551C31.2901 7.22367 31.3329 7.66618 31.4043 8.02305C31.4756 8.37991 31.5898 8.6654 31.7183 8.86524C31.8611 9.07936 32.0181 9.22211 32.2036 9.30775C32.3892 9.3934 32.6034 9.43622 32.8175 9.43622C33.0744 9.43622 33.3171 9.3934 33.5454 9.29348C33.7738 9.19356 33.9737 9.07936 34.1307 8.92234C34.302 8.76532 34.4305 8.57975 34.5304 8.37991C34.6303 8.18007 34.6731 7.98022 34.6731 7.7661H34.9872C34.9872 8.02304 34.9301 8.26571 34.8159 8.50838C34.7017 8.75104 34.5304 8.96516 34.3163 9.15073C34.1022 9.3363 33.8452 9.47905 33.5454 9.59324C33.26 9.72171 32.9316 9.77881 32.5605 9.77881ZM31.2758 6.3672C31.5613 6.3672 31.8182 6.3672 32.0466 6.35292C32.275 6.33865 32.4606 6.32437 32.6176 6.3101C32.8032 6.29583 32.9459 6.26727 33.0744 6.253C33.0887 6.16735 33.1172 6.06743 33.1315 5.96751C33.1458 5.86759 33.1601 5.76767 33.1743 5.65347C33.1886 5.53927 33.1886 5.41081 33.1886 5.28233C33.1886 4.89692 33.16 4.56861 33.1029 4.31167C33.0458 4.05472 32.9745 3.8406 32.8745 3.66931C32.7889 3.51229 32.689 3.38382 32.5605 3.32672C32.432 3.26962 32.3321 3.2268 32.2179 3.2268C32.1037 3.2268 31.9895 3.26962 31.8753 3.35527C31.7612 3.44092 31.6612 3.59794 31.5613 3.81206C31.4757 4.04045 31.39 4.35449 31.3329 4.76845C31.2758 5.18241 31.2758 5.71057 31.2758 6.3672Z" fill="#292F36"/>
<path d="M40.7255 3.41231C40.4686 3.41231 40.2402 3.46941 40.0403 3.56933C39.8405 3.66925 39.6692 3.79772 39.5264 3.92619C39.3694 4.08321 39.2409 4.25451 39.1125 4.44008V9.1935L39.8833 9.37906V9.56463H36.2861V9.37906L37.057 9.1935V3.54078L36.2861 3.35521V3.16964H37.4424C37.7421 3.16964 37.9848 3.22674 38.1846 3.32666C38.3702 3.42658 38.5272 3.54078 38.6414 3.65498C38.7699 3.79772 38.8698 3.95474 38.9269 4.12603C39.0554 3.94047 39.2124 3.76917 39.398 3.61215C39.555 3.48368 39.7549 3.36949 39.9975 3.25529C40.2402 3.14109 40.5114 3.09827 40.8397 3.09827C41.2965 3.09827 41.6391 3.21246 41.8675 3.41231C42.0959 3.62643 42.1958 3.92619 42.1958 4.31161C42.1958 4.5971 42.1101 4.83976 41.9388 5.01106C41.7675 5.18235 41.5249 5.268 41.2394 5.268C41.168 5.268 41.1109 5.268 41.0395 5.268C40.9682 5.268 40.9254 5.25372 40.8825 5.25372C40.8254 5.23945 40.7683 5.23945 40.7255 5.2109V3.41231Z" fill="#292F36"/>
<path d="M47.7201 5.08247C47.7201 4.79698 47.6915 4.54004 47.6344 4.32593C47.5773 4.11181 47.506 3.94051 47.4061 3.81204C47.3204 3.6693 47.2205 3.56937 47.092 3.51227C46.9778 3.45518 46.8636 3.41235 46.7494 3.41235C46.5496 3.41235 46.3783 3.46945 46.2355 3.56937C46.0928 3.6693 45.9643 3.79777 45.8787 3.92624C45.7645 4.08326 45.6788 4.25455 45.5932 4.44012V9.19354L46.364 9.37911V9.56468H42.7668V9.37911L43.5376 9.19354V3.54082L42.7668 3.35526V3.16969H43.9231C44.2228 3.16969 44.4655 3.22679 44.6653 3.32671C44.8509 3.42663 45.0079 3.54082 45.1221 3.65502C45.2506 3.79777 45.3505 3.95479 45.4076 4.12608C45.5218 3.91196 45.6646 3.71212 45.8359 3.54082C45.9786 3.39808 46.1784 3.26961 46.4068 3.14114C46.6352 3.01267 46.935 2.95557 47.2776 2.95557C47.6487 2.95557 47.9913 3.01267 48.2911 3.14114C48.6051 3.25534 48.862 3.42663 49.0762 3.6122C49.2903 3.81204 49.4616 4.02616 49.5901 4.2831C49.7185 4.54004 49.7756 4.79698 49.7756 5.0682V9.17927L50.5464 9.36483V9.55041H48.8763C48.1055 9.55041 47.7201 9.16499 47.7201 8.39417V5.08247Z" fill="#292F36"/>
<path d="M1.85596 18.5861V18.0579H11.7767V18.5861L9.69266 19.1143V29.8915H17.1725V19.1143L15.0884 18.5861V18.0579H25.0093V18.5861L22.9251 19.1143V41.3825L25.0093 41.9107V42.4389H15.0884V41.8964L17.1725 41.3683V30.7623H9.69266V41.3683L11.7767 41.8964V42.4246H1.85596V41.8964L3.94003 41.3683V19.1L1.85596 18.5861Z" fill="#292F36"/>
<path d="M37.3424 24.4958C38.7842 24.4958 40.0689 24.7099 41.2108 25.1238C42.3528 25.5378 43.3092 26.1516 44.1085 26.951C44.9079 27.7503 45.5217 28.721 45.9357 29.863C46.3496 31.0049 46.5638 32.2896 46.5638 33.7314C46.5638 35.1731 46.3496 36.4578 45.9357 37.5998C45.5217 38.7417 44.9079 39.6981 44.1085 40.4975C43.3092 41.2969 42.3385 41.9107 41.2108 42.3246C40.0689 42.7386 38.7842 42.9527 37.3424 42.9527C35.9007 42.9527 34.616 42.7386 33.474 42.3246C32.3321 41.9107 31.3757 41.2969 30.5763 40.4975C29.7769 39.6981 29.1631 38.7275 28.7492 37.5998C28.3352 36.4578 28.1211 35.1731 28.1211 33.7314C28.1211 32.2896 28.3352 31.0049 28.7492 29.863C29.1631 28.721 29.7769 27.7646 30.5763 26.951C31.3757 26.1373 32.3464 25.5378 33.474 25.1238C34.616 24.7099 35.9007 24.4958 37.3424 24.4958ZM37.3424 42.239C37.7421 42.239 38.1276 42.1105 38.5272 41.8536C38.9269 41.5966 39.2695 41.1541 39.5835 40.5118C39.8976 39.8694 40.1545 38.9987 40.3544 37.8995C40.5542 36.8004 40.6541 35.4015 40.6541 33.7028C40.6541 32.0042 40.5542 30.6052 40.3544 29.5061C40.1545 28.407 39.8976 27.5362 39.5835 26.8939C39.2695 26.2515 38.9127 25.809 38.5272 25.5521C38.1418 25.2951 37.7421 25.1667 37.3424 25.1667C36.9427 25.1667 36.5574 25.2951 36.1577 25.5521C35.758 25.809 35.4154 26.2515 35.1013 26.8939C34.7873 27.5362 34.5304 28.407 34.3305 29.5061C34.1307 30.6052 34.0307 32.0042 34.0307 33.7028C34.0307 35.4015 34.1307 36.8004 34.3305 37.8995C34.5304 38.9987 34.7873 39.8694 35.1013 40.5118C35.4154 41.1541 35.7723 41.5966 36.1577 41.8536C36.5574 42.1105 36.9427 42.239 37.3424 42.239Z" fill="#292F36"/>
<path d="M72.6436 30.2341C72.6436 29.4062 72.5722 28.6924 72.4295 28.1357C72.2867 27.579 72.1154 27.108 71.887 26.7511C71.6587 26.3943 71.416 26.1373 71.159 25.966C70.8878 25.809 70.6309 25.7233 70.3739 25.7233C69.9314 25.7233 69.546 25.8661 69.2034 26.1516C68.8608 26.4371 68.5754 26.7654 68.3184 27.108C68.0472 27.5219 67.7902 27.993 67.5904 28.4926V41.3682L69.6888 41.8964V42.4246H59.9535V41.8964L62.0376 41.3682V30.2341C62.0376 29.4062 61.9662 28.6924 61.8235 28.1357C61.6807 27.579 61.5094 27.108 61.281 26.7511C61.0526 26.3943 60.81 26.1373 60.5531 25.966C60.2818 25.809 60.0249 25.7233 59.7679 25.7233C59.3254 25.7233 58.94 25.8661 58.5975 26.1516C58.2549 26.4371 57.9693 26.7654 57.7124 27.108C57.4269 27.5219 57.1843 27.993 56.9844 28.4926V41.3682L59.0685 41.8964V42.4246H49.3333V41.8964L51.4174 41.3682V26.0659L49.3333 25.5378V25.0096H52.4594C53.273 25.0096 53.9439 25.1524 54.4578 25.4236C54.986 25.6948 55.3857 26.0088 55.6997 26.3229C56.0423 26.7226 56.2992 27.1508 56.4705 27.6076C56.7703 27.0223 57.1414 26.5084 57.5839 26.0374C57.9836 25.6377 58.469 25.2808 59.04 24.9525C59.6252 24.6242 60.3247 24.4672 61.1669 24.4672C62.5515 24.4672 63.7648 24.7812 64.764 25.395C65.7775 26.0088 66.5484 26.8082 67.0765 27.7789C67.3763 27.1793 67.7474 26.6369 68.1899 26.1373C68.5896 25.7233 69.0749 25.3379 69.6459 24.9953C70.2312 24.6528 70.9306 24.4672 71.7728 24.4672C72.7292 24.4672 73.5857 24.6242 74.3851 24.924C75.1702 25.2237 75.8554 25.6377 76.4263 26.1659C76.9973 26.694 77.4398 27.2935 77.7539 27.993C78.0679 28.6925 78.2249 29.4347 78.2249 30.2198V41.354L80.309 41.8821V42.4103H75.784C73.6999 42.4103 72.6578 41.3682 72.6578 39.2842V30.2341H72.6436Z" fill="#292F36"/>
<path d="M91.7857 42.9384C88.8166 42.9384 86.5041 42.1248 84.8626 40.4832C83.221 38.8416 82.3931 36.6005 82.3931 33.7171C82.3931 32.2754 82.6072 30.9907 83.0211 29.8487C83.4351 28.7067 84.0204 27.7503 84.7626 26.9367C85.5049 26.1373 86.4042 25.5235 87.4606 25.1095C88.5169 24.6956 89.6731 24.4815 90.915 24.4815C92.2139 24.4815 93.3845 24.667 94.4122 25.0382C95.44 25.4093 96.325 25.9089 97.0388 26.537C97.7525 27.1651 98.3092 27.9074 98.6946 28.7496C99.08 29.5917 99.2656 30.491 99.2656 31.4474C99.2656 31.7758 99.2513 32.0612 99.2085 32.3039C99.1656 32.5466 99.1371 32.7607 99.08 32.9463C99.0086 33.1747 98.9515 33.3745 98.9087 33.5315C97.8809 33.7456 96.8104 33.9169 95.6684 34.0597C94.6977 34.2024 93.57 34.3166 92.2996 34.4308C91.0292 34.5307 89.6874 34.5878 88.3027 34.5878C88.3027 36.0296 88.4027 37.2286 88.6168 38.185C88.8309 39.1414 89.1164 39.9122 89.4875 40.4832C89.8587 41.0542 90.3012 41.4539 90.815 41.6966C91.3289 41.9392 91.8856 42.0677 92.4852 42.0677C93.1846 42.0677 93.8413 41.9392 94.4551 41.6823C95.0689 41.4253 95.597 41.0828 96.0538 40.6545C96.5106 40.2263 96.8675 39.7409 97.1387 39.1985C97.4099 38.6561 97.5384 38.0994 97.5384 37.5427H98.4091C98.4091 38.2421 98.2521 38.913 97.9381 39.5554C97.624 40.212 97.1815 40.783 96.5962 41.2826C96.011 41.7822 95.3258 42.1819 94.5122 42.4817C93.6843 42.7814 92.7707 42.9384 91.7857 42.9384ZM88.3027 33.7171C89.0878 33.7171 89.7873 33.7028 90.3868 33.66C90.9863 33.6172 91.5002 33.5886 91.9142 33.5458C92.3995 33.503 92.8135 33.4459 93.1704 33.3745C93.2132 33.1461 93.2703 32.8892 93.3417 32.6037C93.3845 32.3467 93.4273 32.0612 93.4558 31.7472C93.4844 31.4332 93.5129 31.1048 93.5129 30.7623C93.5129 29.7202 93.4273 28.8495 93.2703 28.1357C93.1132 27.422 92.8991 26.851 92.6565 26.4085C92.4138 25.966 92.1283 25.652 91.8286 25.4664C91.5145 25.2808 91.2004 25.1809 90.9007 25.1809C90.6009 25.1809 90.2869 25.2951 89.9728 25.5092C89.6588 25.7376 89.3876 26.1516 89.1449 26.7654C88.9023 27.3792 88.7024 28.2499 88.5311 29.3634C88.3884 30.4768 88.3027 31.9328 88.3027 33.7171Z" fill="#292F36"/>
<path d="M116.352 42.0677V27.9502L103.876 18.0722V42.0677H116.352Z" fill="#292F36"/>
<path d="M131.783 42.0677V27.9502L119.507 18.0722V42.0677H131.783Z" fill="#292F36"/>
</svg>
