<svg width="164" height="44" viewBox="0 0 164 44" fill="none" xmlns="http://www.w3.org/2000/svg">
<path d="M35.2041 43.1573H8.38586C3.97871 43.1573 0.406982 39.5856 0.406982 35.1784V8.36024C0.406982 3.95309 3.97871 0.381348 8.38586 0.381348H35.2041C39.6113 0.381348 43.183 3.95309 43.183 8.36024V35.1784C43.183 39.5856 39.6113 43.1573 35.2041 43.1573Z" fill="#292F36"/>
<path d="M29.5014 22.1628C30.2642 23.1193 30.6516 24.2332 30.6516 25.4924C30.6516 27.3448 30.0341 28.7978 28.7992 29.827C27.5642 30.8561 25.7965 31.3888 23.4961 31.3888H13.4468V9.7768H23.2539C25.4575 9.7768 27.1526 10.2611 28.3512 11.2175C29.5499 12.174 30.1552 13.5422 30.1552 15.3099C30.1552 16.6175 29.8041 17.6951 29.114 18.5668C28.4239 19.4386 27.5158 19.9955 26.3898 20.2619C27.7095 20.5767 28.7386 21.2063 29.5014 22.1628ZM18.6652 18.6153H22.0916C23.9077 18.6153 24.8158 17.8404 24.8158 16.2906C24.8158 14.7409 23.8835 13.966 22.0311 13.966H18.6652V18.6153ZM25.3001 24.7659C25.3001 23.991 25.0458 23.3857 24.5373 22.9498C24.0288 22.5139 23.3023 22.296 22.3701 22.296H18.6773V27.1511H22.4064C24.3315 27.139 25.3001 26.352 25.3001 24.7659Z" fill="white"/>
<path d="M67.9673 31.3888L63.2937 23.2282H62.1072V31.3888H56.8767V9.7768H65.8C67.5072 9.7768 68.9601 10.0674 70.1345 10.6606C71.3211 11.2539 72.2049 12.0651 72.7982 13.0942C73.3914 14.1234 73.682 15.2978 73.682 16.6296C73.682 18.2036 73.2461 19.5354 72.3865 20.6372C71.5148 21.739 70.2677 22.4897 68.609 22.9014L73.7426 31.4009H67.9673V31.3888ZM62.1072 19.6565H65.3399C66.3812 19.6565 67.1439 19.4265 67.6282 18.9664C68.1126 18.5063 68.3668 17.8283 68.3668 16.9323C68.3668 16.0727 68.1125 15.4068 67.6161 14.9104C67.1197 14.426 66.3569 14.1718 65.3399 14.1718H62.1072V19.6565Z" fill="#292F36"/>
<path d="M97.3402 27.4538H89.2402L87.8963 31.4008H82.3994L90.3178 9.94629H96.3352L104.254 31.4008H98.6962L97.3402 27.4538ZM95.9962 23.4704L93.3084 15.5278L90.5842 23.4704H95.9962Z" fill="#292F36"/>
<path d="M133.106 31.3888H127.875L119.134 18.1189V31.3888H113.903V9.7768H119.134L127.875 23.1677V9.7768H133.106V31.3888Z" fill="#292F36"/>
<path d="M162.43 26.1825C161.522 27.8171 160.215 29.1005 158.52 30.0206C156.812 30.9408 154.815 31.4009 152.514 31.4009H144.354V9.78894H152.514C154.839 9.78894 156.849 10.2369 158.532 11.1328C160.227 12.0288 161.522 13.288 162.43 14.9225C163.338 16.557 163.786 18.4216 163.786 20.5525C163.786 22.6592 163.326 24.5359 162.43 26.1825ZM156.8 25.0928C157.926 24.0153 158.495 22.4897 158.495 20.5404C158.495 18.579 157.926 17.0655 156.8 15.988C155.674 14.9104 154.088 14.3656 152.042 14.3656H149.572V26.7153H152.042C154.088 26.7153 155.674 26.1825 156.8 25.0928Z" fill="#292F36"/>
</svg>
