<svg width="118" height="48" viewBox="0 0 118 48" fill="none" xmlns="http://www.w3.org/2000/svg">
<path d="M0.791016 29.3936V0.187866H17.9918V29.3793H0.791016V29.3936ZM15.9078 22.5989L16.3503 19.3729L14.7515 19.2159L14.2662 21.6996C13.2669 22.1992 12.0393 22.4419 10.5691 22.4419C8.57065 22.4419 6.98617 21.8138 5.82993 20.5434C4.65942 19.273 4.08843 17.6028 4.08843 15.5188C4.08843 13.4918 4.65942 11.8216 5.78711 10.5084C6.9148 9.1951 8.39938 8.53847 10.2408 8.53847C11.1829 8.53847 11.9822 8.65267 12.6246 8.86679C13.267 9.0809 13.8522 9.3664 14.4089 9.73753L14.88 12.1928L16.5073 12.0358L16.0362 8.80969C15.3511 8.22443 14.5374 7.75338 13.5953 7.38224C12.6531 7.02537 11.4827 6.8398 10.098 6.8398C8.45647 6.8398 7.04329 7.23949 5.85851 8.05314C4.67372 8.86679 3.74587 9.93738 3.08924 11.2649C2.43261 12.6067 2.1043 14.0485 2.1043 15.5901C2.1043 18.0311 2.86084 20.0723 4.37394 21.6996C5.88704 23.3269 7.85692 24.1406 10.2979 24.1406C12.696 24.1406 14.566 23.6267 15.9078 22.5989Z" fill="#292F36"/>
<path d="M23.8301 29.3936V0.187866H31.2243V29.3793H23.8301V29.3936ZM24.6151 23.8836H30.4534V22.4134H28.4408V6.1118H24.5866V7.58208H26.6279V22.4134H24.6151V23.8836Z" fill="#292F36"/>
<path d="M37.0627 29.3936V0.187866H50.0526V29.3793H37.0627V29.3936ZM39.418 13.2634L39.0041 15.9184L40.5029 16.104L40.9454 14.1198C41.5878 13.8058 42.3158 13.6488 43.1722 13.6488C44.2 13.6488 44.8995 13.9057 45.2563 14.4196C45.6132 14.9335 45.7845 15.6044 45.7845 16.4323V17.4601C45.4705 17.4315 45.1421 17.403 44.7853 17.3887C44.4284 17.3744 44.0858 17.3602 43.7432 17.3602C42.4585 17.3602 41.2309 17.5886 40.0889 18.0453C38.947 18.5021 38.376 19.4585 38.376 20.9003C38.376 22.1279 38.7614 22.9701 39.5465 23.4268C40.3316 23.8979 41.1024 24.1263 41.859 24.1263C42.7868 24.1263 43.5862 23.8836 44.2428 23.3983C44.8994 22.913 45.4134 22.3705 45.7845 21.7424V21.7995C45.813 23.3555 46.5125 24.1263 47.8829 24.1263C48.411 24.1263 48.9106 23.9978 49.3817 23.7409L49.3531 22.5561C49.1247 22.656 48.8678 22.7131 48.5823 22.7131C47.9257 22.7131 47.5973 22.2992 47.5973 21.4712V16.0041C47.5973 13.4347 46.227 12.15 43.4863 12.15C42.7297 12.15 42.016 12.2356 41.3451 12.4069C40.6599 12.5925 40.0175 12.878 39.418 13.2634ZM45.7702 19.5727C45.6988 20.5148 45.3134 21.2714 44.614 21.8138C43.9145 22.3705 43.1722 22.6417 42.3729 22.6417C41.8732 22.6417 41.3879 22.499 40.9312 22.2278C40.4601 21.9566 40.2317 21.4427 40.2317 20.7004C40.2317 19.8011 40.5886 19.2301 41.2737 18.9589C41.9732 18.6877 42.744 18.5592 43.6147 18.5592C44.0001 18.5592 44.3713 18.5735 44.7281 18.6163C45.085 18.6449 45.4419 18.6734 45.7559 18.6877V19.5727H45.7702Z" fill="#292F36"/>
<path d="M55.905 29.3936V0.187866H67.71V29.3793H55.905V29.3936ZM66.4682 20.5577C66.4682 19.6441 66.2255 18.9732 65.7401 18.5307C65.2548 18.0882 64.6696 17.7884 63.9558 17.6171C63.2421 17.4458 62.5427 17.3031 61.8432 17.1889C61.1438 17.0747 60.5442 16.8891 60.0589 16.6464C59.5736 16.4038 59.3309 15.9755 59.3309 15.3617C59.3309 14.7765 59.5593 14.3482 60.0303 14.0628C60.5014 13.7773 61.0866 13.6488 61.8146 13.6488C62.6568 13.6488 63.442 13.8344 64.17 14.2198L64.4555 16.0755L65.9543 15.8899L65.6688 13.2063C65.1835 12.9065 64.5982 12.6638 63.8988 12.464C63.1993 12.2642 62.457 12.15 61.6576 12.15C60.6013 12.15 59.6307 12.4069 58.7314 12.9065C57.8321 13.4061 57.3896 14.2626 57.3896 15.4902C57.3896 16.3895 57.6322 17.0461 58.1175 17.4601C58.6029 17.8883 59.2024 18.1738 59.9304 18.3451C60.6584 18.5164 61.3721 18.6591 62.0859 18.7876C62.7996 18.9018 63.3991 19.1017 63.8845 19.3586C64.3698 19.6155 64.6125 20.0581 64.6125 20.7004C64.6125 21.357 64.2984 21.8424 63.6703 22.1564C63.0422 22.4705 62.3285 22.6275 61.5149 22.6275C60.6013 22.6275 59.7448 22.4419 58.9597 22.0565L59.0311 20.5291L57.5894 20.3721L57.2325 22.9843C57.7321 23.3126 58.3888 23.5839 59.1881 23.798C59.9875 24.0121 60.7869 24.1263 61.6005 24.1263C62.9852 24.1263 64.1414 23.8123 65.0693 23.1699C65.9971 22.5561 66.4682 21.6711 66.4682 20.5577Z" fill="#292F36"/>
<path d="M73.5483 29.3936V0.187866H85.3533V29.3793H73.5483V29.3936ZM84.1114 20.5577C84.1114 19.6441 83.8687 18.9732 83.3834 18.5307C82.8981 18.0882 82.3128 17.7884 81.5991 17.6171C80.8854 17.4458 80.1859 17.3031 79.4865 17.1889C78.787 17.0747 78.1875 16.8891 77.7022 16.6464C77.2168 16.4038 76.9742 15.9755 76.9742 15.3617C76.9742 14.7765 77.2025 14.3482 77.6736 14.0628C78.1447 13.7773 78.7299 13.6488 79.4579 13.6488C80.3001 13.6488 81.0852 13.8344 81.8132 14.2198L82.0988 16.0755L83.5976 15.8899L83.3121 13.2063C82.8267 12.9065 82.2415 12.6638 81.542 12.464C80.8426 12.2642 80.1003 12.15 79.3009 12.15C78.2446 12.15 77.2739 12.4069 76.3747 12.9065C75.4754 13.4061 75.0328 14.2626 75.0328 15.4902C75.0328 16.3895 75.2755 17.0461 75.7609 17.4601C76.2462 17.8883 76.8458 18.1738 77.5738 18.3451C78.3018 18.5164 79.0154 18.6591 79.7291 18.7876C80.4429 18.9018 81.0424 19.1017 81.5277 19.3586C82.0131 19.6155 82.2558 20.0581 82.2558 20.7004C82.2558 21.357 81.9418 21.8424 81.3137 22.1564C80.6856 22.4705 79.9719 22.6275 79.1582 22.6275C78.2446 22.6275 77.3881 22.4419 76.603 22.0565L76.6745 20.5291L75.2327 20.3721L74.8758 22.9843C75.3755 23.3126 76.0321 23.5839 76.8314 23.798C77.6308 24.0121 78.4302 24.1263 79.2438 24.1263C80.6285 24.1263 81.7847 23.8123 82.7126 23.1699C83.6404 22.5561 84.1114 21.6711 84.1114 20.5577Z" fill="#292F36"/>
<path d="M91.1916 29.3936V0.187866H98.9713V29.3793H91.1916V29.3936ZM92.3336 23.8836H98.1719V22.4134H96.1591V12.3926H92.2908V13.8629H94.3605V22.4134H92.3479V23.8836H92.3336ZM94.1608 7.0682V9.4235H96.1307V7.0682H94.1608Z" fill="#292F36"/>
<path d="M104.81 29.3936V0.187866H117.243V29.3793H104.81V29.3936ZM116.129 20.0152L114.573 19.6726C114.231 21.614 113.189 22.5846 111.476 22.5846C110.334 22.5846 109.463 22.1992 108.864 21.4284C108.264 20.6576 107.964 19.5727 107.964 18.2024C107.964 16.9605 108.235 15.9042 108.764 15.0191C109.292 14.1341 110.177 13.7059 111.404 13.7059C112.347 13.7059 113.174 13.92 113.86 14.3482L114.302 16.2896L115.801 16.104L115.358 13.3347C114.773 12.8922 114.159 12.5782 113.517 12.4069C112.875 12.2356 112.175 12.15 111.419 12.15C109.634 12.15 108.278 12.778 107.393 14.0342C106.494 15.2904 106.051 16.7178 106.051 18.3023C106.051 20.1437 106.522 21.5854 107.479 22.5989C108.421 23.6267 109.691 24.1406 111.276 24.1406C112.86 24.1406 114.031 23.6981 114.773 22.8273C115.516 21.9423 115.972 21.0144 116.129 20.0152Z" fill="#292F36"/>
<path d="M8.2281 45.3382C7.89979 45.9377 7.41444 46.4088 6.78636 46.7371C6.144 47.0654 5.38745 47.2367 4.50242 47.2367H1.94727V39.1859H4.50242C5.38745 39.1859 6.15828 39.3429 6.78636 39.6712C7.41444 39.9995 7.89979 40.4563 8.2281 41.0701C8.55641 41.6839 8.71343 42.3834 8.71343 43.2113C8.71343 44.025 8.55641 44.7387 8.2281 45.3382ZM6.81489 45.4952C7.3716 44.9528 7.64284 44.1962 7.64284 43.2113C7.64284 42.2264 7.3716 41.4698 6.81489 40.9274C6.25818 40.3849 5.45881 40.1137 4.40249 40.1137H2.96079V46.3089H4.40249C5.45881 46.3089 6.25818 46.0377 6.81489 45.4952Z" fill="#292F36"/>
<path d="M14.0093 40.0281V42.7831H17.0641V43.5824H14.0093V46.3945H17.4067V47.2367H12.9673V39.1859H17.4067V40.0281H14.0093Z" fill="#292F36"/>
<path d="M26.4282 46.209C26.2426 46.5373 25.9713 46.8086 25.6002 47.0084C25.2291 47.2083 24.7723 47.3225 24.2156 47.3225C23.6874 47.3225 23.2021 47.2225 22.7881 47.037C22.3742 46.8371 22.0459 46.5802 21.7889 46.2376C21.5463 45.895 21.4035 45.5096 21.3607 45.0813H22.4741C22.5026 45.3097 22.574 45.5381 22.7025 45.7522C22.8309 45.9664 23.0308 46.1519 23.2734 46.2947C23.5161 46.4374 23.8159 46.5088 24.1728 46.5088C24.6295 46.5088 24.9864 46.3946 25.2291 46.1377C25.4718 45.8807 25.6002 45.581 25.6002 45.1955C25.6002 44.8672 25.5146 44.596 25.3433 44.3962C25.172 44.1963 24.9579 44.025 24.7152 43.9108C24.4725 43.7966 24.1157 43.6682 23.6874 43.5254C23.1735 43.3541 22.7739 43.1971 22.4598 43.0544C22.1458 42.9116 21.8888 42.6832 21.6747 42.3835C21.4606 42.0837 21.3464 41.6983 21.3464 41.2129C21.3464 40.799 21.4463 40.4278 21.6462 40.0995C21.846 39.7855 22.1315 39.5286 22.5169 39.3573C22.888 39.186 23.3449 39.1003 23.8445 39.1003C24.6296 39.1003 25.2719 39.2859 25.7287 39.6713C26.1997 40.0567 26.4567 40.542 26.5423 41.1416H25.4289C25.3718 40.8275 25.2005 40.542 24.9436 40.2994C24.6724 40.0567 24.3155 39.9282 23.8587 39.9282C23.4447 39.9282 23.1022 40.0424 22.8595 40.2566C22.6026 40.4707 22.4884 40.7847 22.4884 41.1701C22.4884 41.4842 22.574 41.7411 22.7311 41.9267C22.9023 42.1265 23.1022 42.2693 23.3448 42.3835C23.5875 42.4977 23.9301 42.6119 24.344 42.7546C24.8579 42.9259 25.2719 43.0829 25.6002 43.2399C25.9142 43.397 26.1855 43.6253 26.3996 43.9251C26.6137 44.2249 26.7279 44.6388 26.7279 45.1527C26.6994 45.5239 26.6137 45.8807 26.4282 46.209Z" fill="#292F36"/>
<path d="M31.9952 39.1859V47.2367H30.9531V39.1859H31.9952Z" fill="#292F36"/>
<path d="M42.5297 39.7998C43.172 40.2709 43.6003 40.8989 43.8144 41.6983H42.7153C42.5297 41.213 42.2014 40.8133 41.7589 40.5278C41.3163 40.228 40.7882 40.0853 40.1744 40.0853C39.632 40.0853 39.1323 40.2138 38.7041 40.4707C38.2758 40.7276 37.9333 41.0845 37.6764 41.5556C37.4337 42.0266 37.3052 42.5833 37.3052 43.2257C37.3052 43.8823 37.4337 44.4533 37.6764 44.9244C37.919 45.3954 38.2759 45.7666 38.7184 46.0235C39.1609 46.2804 39.6748 46.4089 40.26 46.4089C40.7597 46.4089 41.2021 46.2947 41.6161 46.0949C42.0301 45.8807 42.3584 45.5667 42.6296 45.167C42.9008 44.7673 43.0436 44.282 43.1007 43.7396H39.9317V42.9687H43.9714V43.9251C43.9 44.5675 43.7002 45.1385 43.3719 45.6666C43.0436 46.1948 42.6011 46.5945 42.0444 46.8942C41.4877 47.194 40.8596 47.351 40.1458 47.351C39.375 47.351 38.6898 47.1797 38.0903 46.8371C37.4908 46.4946 37.034 46.0092 36.7057 45.3811C36.3773 44.7673 36.206 44.0536 36.206 43.2542C36.206 42.4549 36.3773 41.7411 36.7057 41.1273C37.034 40.5135 37.505 40.0139 38.0903 39.6713C38.6755 39.3287 39.3607 39.1432 40.1315 39.1432C41.1022 39.1146 41.8873 39.343 42.5297 39.7998Z" fill="#292F36"/>
<path d="M54.5062 47.2367H53.4642L49.2817 40.8703V47.2367H48.2397V39.1859H49.2817L53.4642 45.5523V39.1859H54.5062V47.2367Z" fill="#292F36"/>
<path d="M69.5229 46.209C69.3373 46.5373 69.0661 46.8086 68.6949 47.0084C68.3238 47.2083 67.867 47.3225 67.3103 47.3225C66.7822 47.3225 66.2968 47.2225 65.8829 47.037C65.4689 46.8371 65.1406 46.5802 64.8837 46.2376C64.641 45.895 64.4983 45.5096 64.4554 45.0813H65.5688C65.5974 45.3097 65.6688 45.5381 65.7972 45.7522C65.9257 45.9664 66.1255 46.1519 66.3682 46.2947C66.6108 46.4374 66.9106 46.5088 67.2675 46.5088C67.7243 46.5088 68.0811 46.3946 68.3238 46.1377C68.5664 45.8807 68.6949 45.581 68.6949 45.1955C68.6949 44.8672 68.6093 44.596 68.438 44.3962C68.2667 44.1963 68.0526 44.025 67.8099 43.9108C67.5672 43.7966 67.2104 43.6682 66.7822 43.5254C66.2683 43.3541 65.8686 43.1971 65.5545 43.0544C65.2405 42.9116 64.9836 42.6832 64.7694 42.3835C64.5553 42.0837 64.4411 41.6983 64.4411 41.2129C64.4411 40.799 64.541 40.4278 64.7409 40.0995C64.9407 39.7855 65.2263 39.5286 65.6117 39.3573C65.9828 39.186 66.4396 39.1003 66.9392 39.1003C67.7243 39.1003 68.3667 39.2859 68.8234 39.6713C69.2945 40.0567 69.5515 40.542 69.6371 41.1416H68.5236C68.4665 40.8275 68.2952 40.542 68.0383 40.2994C67.7671 40.0567 67.4103 39.9282 66.9535 39.9282C66.5395 39.9282 66.1969 40.0424 65.9542 40.2566C65.6973 40.4707 65.5831 40.7847 65.5831 41.1701C65.5831 41.4842 65.6687 41.7411 65.8257 41.9267C65.997 42.1265 66.1969 42.2693 66.4395 42.3835C66.6822 42.4977 67.0248 42.6119 67.4388 42.7546C67.9526 42.9259 68.3666 43.0829 68.6949 43.2399C69.009 43.397 69.2802 43.6253 69.4943 43.9251C69.7084 44.2249 69.8226 44.6388 69.8226 45.1527C69.794 45.5239 69.7084 45.8807 69.5229 46.209Z" fill="#292F36"/>
<path d="M78.987 39.1859V40.0281H76.7173V47.2367H75.661V40.0281H73.3913V39.1859H78.987Z" fill="#292F36"/>
<path d="M83.8403 39.1859V44.0107C83.8403 44.7958 84.0116 45.381 84.3685 45.7664C84.7253 46.1376 85.1964 46.3374 85.8245 46.3374C86.4383 46.3374 86.9094 46.1519 87.252 45.7664C87.5945 45.381 87.7658 44.8101 87.7658 44.025V39.2002H88.8079V44.025C88.8079 45.1241 88.5367 45.952 87.9943 46.4944C87.4518 47.0512 86.7238 47.3224 85.8102 47.3224C84.9109 47.3224 84.183 47.0512 83.6405 46.4944C83.0981 45.9377 82.8269 45.1241 82.8269 44.025V39.2002H83.8403V39.1859Z" fill="#292F36"/>
<path d="M99.5566 45.3382C99.2283 45.9377 98.7429 46.4088 98.1149 46.7371C97.4725 47.0654 96.716 47.2367 95.831 47.2367H93.2759V39.1859H95.831C96.716 39.1859 97.4868 39.3429 98.1149 39.6712C98.7429 39.9995 99.2283 40.4563 99.5566 41.0701C99.8849 41.6839 100.042 42.3834 100.042 43.2113C100.042 44.025 99.8849 44.7387 99.5566 45.3382ZM98.1577 45.4952C98.7144 44.9528 98.9857 44.1962 98.9857 43.2113C98.9857 42.2264 98.7144 41.4698 98.1577 40.9274C97.601 40.3849 96.8016 40.1137 95.7453 40.1137H94.3036V46.3089H95.7453C96.7874 46.3089 97.601 46.0377 98.1577 45.4952Z" fill="#292F36"/>
<path d="M105.352 39.1859V47.2367H104.31V39.1859H105.352Z" fill="#292F36"/>
<path d="M115.573 39.6142C116.172 39.9711 116.643 40.4564 116.986 41.0845C117.328 41.7125 117.5 42.4263 117.5 43.2114C117.5 43.9965 117.328 44.7102 116.986 45.3383C116.643 45.9664 116.172 46.4517 115.573 46.8086C114.973 47.1654 114.302 47.3367 113.56 47.3367C112.818 47.3367 112.132 47.1654 111.533 46.8086C110.933 46.4517 110.448 45.9664 110.105 45.3383C109.763 44.7102 109.592 43.9965 109.592 43.2114C109.592 42.4263 109.763 41.7125 110.105 41.0845C110.448 40.4564 110.919 39.9711 111.533 39.6142C112.147 39.2573 112.818 39.086 113.56 39.086C114.302 39.086 114.973 39.2573 115.573 39.6142ZM112.061 40.4421C111.618 40.6991 111.276 41.0559 111.033 41.5412C110.791 42.0123 110.662 42.569 110.662 43.2114C110.662 43.8395 110.791 44.3962 111.033 44.8815C111.276 45.3668 111.618 45.7237 112.061 45.9806C112.504 46.2376 112.989 46.366 113.546 46.366C114.088 46.366 114.588 46.2376 115.03 45.9806C115.473 45.7237 115.815 45.3526 116.058 44.8815C116.301 44.4104 116.429 43.8537 116.429 43.2256C116.429 42.5833 116.301 42.0266 116.058 41.5555C115.815 41.0845 115.473 40.7133 115.03 40.4564C114.588 40.1994 114.102 40.071 113.546 40.071C113.003 40.0567 112.504 40.1852 112.061 40.4421Z" fill="#292F36"/>
</svg>
