<svg width="17" height="19" viewBox="0 0 17 19" fill="none" xmlns="http://www.w3.org/2000/svg">
<path d="M8.5 5.27978C6.125 5.27978 4.23242 7.20947 4.23242 9.54736C4.23242 11.9223 6.125 13.8149 8.5 13.8149C10.8379 13.8149 12.7676 11.9223 12.7676 9.54736C12.7676 7.20947 10.8379 5.27978 8.5 5.27978ZM8.5 12.3305C6.97852 12.3305 5.7168 11.1059 5.7168 9.54736C5.7168 8.02587 6.94141 6.80127 8.5 6.80127C10.0215 6.80127 11.2461 8.02587 11.2461 9.54736C11.2461 11.1059 10.0215 12.3305 8.5 12.3305ZM13.918 5.13134C13.918 4.5747 13.4727 4.12939 12.916 4.12939C12.3594 4.12939 11.9141 4.5747 11.9141 5.13134C11.9141 5.68798 12.3594 6.1333 12.916 6.1333C13.4727 6.1333 13.918 5.68798 13.918 5.13134ZM16.7383 6.1333C16.6641 4.79736 16.3672 3.60986 15.4023 2.64502C14.4375 1.68017 13.25 1.3833 11.9141 1.30908C10.541 1.23486 6.42188 1.23486 5.04883 1.30908C3.71289 1.3833 2.5625 1.68017 1.56055 2.64502C0.595703 3.60986 0.298828 4.79736 0.224609 6.1333C0.150391 7.50634 0.150391 11.6254 0.224609 12.9985C0.298828 14.3344 0.595703 15.4848 1.56055 16.4868C2.5625 17.4516 3.71289 17.7485 5.04883 17.8227C6.42188 17.8969 10.541 17.8969 11.9141 17.8227C13.25 17.7485 14.4375 17.4516 15.4023 16.4868C16.3672 15.4848 16.6641 14.3344 16.7383 12.9985C16.8125 11.6254 16.8125 7.50634 16.7383 6.1333ZM14.957 14.4458C14.6973 15.1879 14.1035 15.7446 13.3984 16.0415C12.2852 16.4868 9.6875 16.3754 8.5 16.3754C7.27539 16.3754 4.67773 16.4868 3.60156 16.0415C2.85938 15.7446 2.30273 15.1879 2.00586 14.4458C1.56055 13.3696 1.67188 10.7719 1.67188 9.54736C1.67188 8.35986 1.56055 5.7622 2.00586 4.64892C2.30273 3.94384 2.85938 3.3872 3.60156 3.09033C4.67773 2.64502 7.27539 2.75634 8.5 2.75634C9.6875 2.75634 12.2852 2.64502 13.3984 3.09033C14.1035 3.35009 14.6602 3.94384 14.957 4.64892C15.4023 5.7622 15.291 8.35986 15.291 9.54736C15.291 10.7719 15.4023 13.3696 14.957 14.4458Z" fill="#292F36"/>
</svg>
