<svg width="16" height="17" viewBox="0 0 16 17" fill="none" xmlns="http://www.w3.org/2000/svg">
<g clip-path="url(#clip0_54_398)">
<path d="M3.64062 16.1723V5.66064H0.371094V16.1723H3.64062ZM1.98828 4.25439C3.04297 4.25439 3.88672 3.37548 3.88672 2.3208C3.88672 1.30127 3.04297 0.45752 1.98828 0.45752C0.96875 0.45752 0.125 1.30127 0.125 2.3208C0.125 3.37548 0.96875 4.25439 1.98828 4.25439ZM15.8398 16.1723H15.875V10.4067C15.875 7.59423 15.2422 5.41455 11.9375 5.41455C10.3555 5.41455 9.30078 6.29345 8.84375 7.10205H8.80859V5.66064H5.67969V16.1723H8.94922V10.9692C8.94922 9.59814 9.19531 8.29736 10.8828 8.29736C12.5703 8.29736 12.6055 9.84423 12.6055 11.0747V16.1723H15.8398Z" fill="#292F36"/>
</g>
<defs>
<clipPath id="clip0_54_398">
<rect width="16" height="17" fill="white" transform="translate(0 0.000244141)"/>
</clipPath>
</defs>
</svg>
