<svg width="176" height="34" viewBox="0 0 176 34" fill="none" xmlns="http://www.w3.org/2000/svg">
<path d="M0 34.0003H13.4588V24.499C13.4588 22.4853 15.0898 20.8543 17.1035 20.8543C19.1172 20.8543 20.7482 22.4853 20.7482 24.499V34.0003H33.9975V0C15.2211 0 0 15.2211 0 34.0003Z" fill="#CDA274"/>
<path d="M44.9975 29.9002V29.5001L45.7975 29.1801C46.3308 28.9934 46.6775 28.7402 46.8375 28.4202C47.0242 28.1002 47.1175 27.6735 47.1175 27.1402V6.26015C47.1175 5.72685 47.0375 5.30015 46.8775 4.98015C46.7175 4.66015 46.3575 4.40685 45.7975 4.22015L44.9975 3.90015V3.50015H55.2775V3.90015L54.4775 4.22015C53.9442 4.40685 53.5842 4.66015 53.3975 4.98015C53.2375 5.30015 53.1575 5.72685 53.1575 6.26015V27.1402C53.1575 27.6735 53.2375 28.1002 53.3975 28.4202C53.5842 28.7135 53.9442 28.9668 54.4775 29.1801L55.2775 29.5001V29.9002H44.9975ZM56.9488 29.9002V29.5001L57.5088 29.3401C58.4421 29.0734 58.9088 28.4202 58.9088 27.3801V14.8602C58.9088 14.2734 58.8154 13.8469 58.6288 13.5802C58.4421 13.2869 58.0821 13.0869 57.5488 12.9802L56.9488 12.8202V12.4202L63.7888 10.1002L64.1888 10.5002L64.5088 12.9002C65.4421 12.0735 66.4954 11.3935 67.6688 10.8602C68.8421 10.3268 70.0021 10.0602 71.1488 10.0602C72.9088 10.0602 74.2554 10.5402 75.1888 11.5002C76.1488 12.4602 76.6288 13.9269 76.6288 15.9002V27.4202C76.6288 28.4602 77.1354 29.1134 78.1488 29.3801L78.5088 29.5001V29.9002H69.0688V29.5001L69.5888 29.3401C70.5221 29.0468 70.9888 28.3934 70.9888 27.3801V14.6202C70.9888 12.9135 70.1354 12.0602 68.4288 12.0602C67.2554 12.0602 65.9754 12.6469 64.5888 13.8202V27.4202C64.5888 28.4602 65.0554 29.1134 65.9888 29.3801L66.3488 29.5001V29.9002H56.9488ZM87.4784 30.5001C85.7718 30.5001 84.4384 30.0735 83.4784 29.2201C82.5451 28.3668 82.0784 27.0069 82.0784 25.1402V11.4602H79.3184V11.0602L80.2784 10.9002C81.1051 10.7135 81.8118 10.4469 82.3984 10.1002C83.0118 9.75345 83.6118 9.28685 84.1984 8.70015L87.4784 5.06015H87.8784L87.7584 10.6602H92.2384V11.4602H87.7184V25.8601C87.7184 26.7934 87.9184 27.5002 88.3184 27.9802C88.7451 28.4602 89.2784 28.7001 89.9184 28.7001C90.4784 28.7001 90.9718 28.5669 91.3984 28.3002C91.8251 28.0069 92.2518 27.6202 92.6784 27.1402L93.0784 27.5401C92.5451 28.4468 91.8118 29.1668 90.8784 29.7001C89.9451 30.2334 88.8118 30.5001 87.4784 30.5001ZM104.255 10.0602C105.988 10.0602 107.468 10.4202 108.695 11.1402C109.922 11.8335 110.854 12.7935 111.494 14.0202C112.161 15.2202 112.494 16.5935 112.494 18.1402C112.494 18.4335 112.481 18.7402 112.454 19.0602C112.427 19.3535 112.374 19.6201 112.294 19.8601H100.375C100.402 22.7402 100.908 24.8202 101.895 26.1002C102.908 27.3535 104.402 27.9802 106.375 27.9802C107.708 27.9802 108.787 27.7668 109.615 27.3401C110.442 26.9134 111.214 26.2869 111.934 25.4602L112.335 25.8201C111.507 27.2868 110.401 28.4335 109.014 29.2602C107.654 30.0869 106.014 30.5001 104.094 30.5001C102.201 30.5001 100.521 30.1002 99.0544 29.3002C97.5877 28.4735 96.441 27.3002 95.6144 25.7802C94.7877 24.2602 94.3744 22.4469 94.3744 20.3402C94.3744 18.1535 94.8544 16.3001 95.8144 14.7802C96.7744 13.2334 98.001 12.0602 99.4944 11.2602C101.015 10.4602 102.602 10.0602 104.255 10.0602ZM104.134 10.8602C103.361 10.8602 102.694 11.1002 102.134 11.5802C101.602 12.0335 101.174 12.8602 100.854 14.0602C100.562 15.2335 100.402 16.9002 100.375 19.0602H107.215C107.481 16.1535 107.375 14.0602 106.895 12.7802C106.414 11.5002 105.494 10.8602 104.134 10.8602ZM114.488 29.9002V29.5001L115.087 29.3401C115.621 29.1801 115.981 28.9402 116.167 28.6202C116.381 28.3002 116.488 27.8869 116.488 27.3801V14.8602C116.488 14.2734 116.381 13.8469 116.167 13.5802C115.981 13.2869 115.621 13.0869 115.087 12.9802L114.488 12.8202V12.4202L121.367 10.1002L121.768 10.5002L122.128 13.9402V14.2602C122.502 13.5135 122.981 12.8335 123.567 12.2202C124.181 11.5802 124.847 11.0602 125.567 10.6602C126.314 10.2602 127.048 10.0602 127.768 10.0602C128.782 10.0602 129.554 10.3402 130.087 10.9002C130.621 11.4602 130.887 12.1669 130.887 13.0202C130.887 13.9269 130.621 14.6335 130.087 15.1402C129.581 15.6202 128.967 15.8602 128.247 15.8602C127.127 15.8602 126.141 15.3002 125.287 14.1802L125.207 14.1002C124.941 13.7269 124.634 13.5269 124.287 13.5002C123.941 13.4469 123.621 13.6069 123.327 13.9802C123.062 14.2202 122.834 14.5135 122.647 14.8602C122.487 15.1802 122.327 15.5535 122.167 15.9802V27.1402C122.167 28.2069 122.634 28.8735 123.567 29.1402L124.848 29.5001V29.9002H114.488ZM132.144 29.9002V29.5001L132.704 29.3401C133.637 29.0734 134.104 28.4202 134.104 27.3801V14.8602C134.104 14.2734 134.01 13.8469 133.824 13.5802C133.637 13.2869 133.277 13.0869 132.744 12.9802L132.144 12.8202V12.4202L138.984 10.1002L139.384 10.5002L139.704 12.9002C140.637 12.0735 141.69 11.3935 142.864 10.8602C144.037 10.3268 145.197 10.0602 146.344 10.0602C148.104 10.0602 149.45 10.5402 150.384 11.5002C151.344 12.4602 151.824 13.9269 151.824 15.9002V27.4202C151.824 28.4602 152.33 29.1134 153.344 29.3801L153.704 29.5001V29.9002H144.264V29.5001L144.785 29.3401C145.717 29.0468 146.184 28.3934 146.184 27.3801V14.6202C146.184 12.9135 145.33 12.0602 143.624 12.0602C142.451 12.0602 141.171 12.6469 139.785 13.8202V27.4202C139.785 28.4602 140.25 29.1134 141.184 29.3801L141.544 29.5001V29.9002H132.144ZM165.389 30.5001C163.363 30.5001 161.602 30.0869 160.109 29.2602C158.615 28.4069 157.455 27.2068 156.629 25.6601C155.829 24.1134 155.429 22.3001 155.429 20.2201C155.429 18.1402 155.855 16.3402 156.709 14.8202C157.589 13.3002 158.775 12.1269 160.269 11.3002C161.789 10.4735 163.495 10.0602 165.389 10.0602C167.283 10.0602 168.975 10.4735 170.469 11.3002C171.962 12.1002 173.135 13.2602 173.989 14.7802C174.869 16.3001 175.309 18.1134 175.309 20.2201C175.309 22.3269 174.895 24.1535 174.069 25.7001C173.269 27.2201 172.122 28.4069 170.629 29.2602C169.162 30.0869 167.415 30.5001 165.389 30.5001ZM165.389 29.7001C166.322 29.7001 167.069 29.4335 167.629 28.9002C168.189 28.3668 168.589 27.4202 168.829 26.0602C169.096 24.7001 169.229 22.7802 169.229 20.3002C169.229 17.7935 169.096 15.8602 168.829 14.5002C168.589 13.1402 168.189 12.1935 167.629 11.6602C167.069 11.1269 166.322 10.8602 165.389 10.8602C164.455 10.8602 163.695 11.1269 163.109 11.6602C162.549 12.1935 162.135 13.1402 161.869 14.5002C161.629 15.8602 161.509 17.7935 161.509 20.3002C161.509 22.7802 161.629 24.7001 161.869 26.0602C162.135 27.4202 162.549 28.3668 163.109 28.9002C163.695 29.4335 164.455 29.7001 165.389 29.7001Z" fill="#292F36"/>
</svg>
