<svg width="95" height="96" viewBox="0 0 95 96" fill="none" xmlns="http://www.w3.org/2000/svg">
<path d="M1 48C1 22.3188 21.8188 1.5 47.5 1.5C73.1812 1.5 94 22.3188 94 48C94 73.6812 73.1812 94.5 47.5 94.5C21.8188 94.5 1 73.6812 1 48Z" fill="#F4F0EC"/>
<path d="M1 48C1 22.3188 21.8188 1.5 47.5 1.5C73.1812 1.5 94 22.3188 94 48C94 73.6812 73.1812 94.5 47.5 94.5C21.8188 94.5 1 73.6812 1 48Z" stroke="#CDA274" stroke-width="2" stroke-miterlimit="10"/>
<path d="M63.0012 56.5749C61.7796 55.3442 58.8211 53.5482 57.3857 52.8243C55.5164 51.8828 55.3625 51.8059 53.8933 52.8974C52.9133 53.6258 52.2617 54.2766 51.1148 54.032C49.9678 53.7874 47.4754 52.4082 45.2931 50.2329C43.1107 48.0576 41.6514 45.4931 41.4061 44.3501C41.1607 43.2071 41.8222 42.5632 42.5438 41.581C43.5607 40.1964 43.4838 39.9657 42.6145 38.0965C41.9368 36.6427 40.0883 33.7121 38.8529 32.4967C37.5313 31.1914 37.5313 31.4222 36.6798 31.776C35.9865 32.0677 35.3214 32.4222 34.6928 32.8352C33.462 33.6529 32.7789 34.3321 32.3012 35.3528C31.8235 36.3735 31.6089 38.7665 34.0759 43.2478C36.5429 47.7292 38.2737 50.0206 41.8561 53.5928C45.4385 57.1649 48.1931 59.0856 52.2202 61.344C57.2018 64.1339 59.1126 63.59 60.1365 63.1131C61.1604 62.6362 61.8427 61.9593 62.662 60.7286C63.076 60.1011 63.4314 59.4368 63.7235 58.7441C64.0781 57.8957 64.3089 57.8957 63.0012 56.5749Z" stroke="#CDA274" stroke-width="2" stroke-miterlimit="10"/>
</svg>
