<svg width="18" height="15" viewBox="0 0 18 15" fill="none" xmlns="http://www.w3.org/2000/svg">
<g clip-path="url(#clip0_54_396)">
<path d="M16.1367 3.76611C16.8398 3.23877 17.4727 2.60595 17.9648 1.86767C17.332 2.14892 16.5938 2.35986 15.8555 2.43017C16.6289 1.97314 17.1914 1.27002 17.4727 0.391114C16.7695 0.812989 15.9609 1.12939 15.1523 1.30517C14.4492 0.566894 13.5 0.14502 12.4453 0.14502C10.4062 0.14502 8.75391 1.79736 8.75391 3.83642C8.75391 4.11767 8.78906 4.39892 8.85938 4.68017C5.80078 4.5044 3.05859 3.02783 1.23047 0.812989C0.914062 1.34033 0.738281 1.97314 0.738281 2.67627C0.738281 3.94189 1.37109 5.06689 2.39062 5.73486C1.79297 5.6997 1.19531 5.55908 0.703125 5.27783V5.31298C0.703125 7.10595 1.96875 8.58252 3.65625 8.93408C3.375 9.00439 3.02344 9.0747 2.70703 9.0747C2.46094 9.0747 2.25 9.03955 2.00391 9.00439C2.46094 10.4809 3.83203 11.5356 5.44922 11.5708C4.18359 12.5551 2.60156 13.1528 0.878906 13.1528C0.5625 13.1528 0.28125 13.1176 0 13.0825C1.61719 14.1372 3.55078 14.7348 5.66016 14.7348C12.4453 14.7348 16.1367 9.14503 16.1367 4.2583C16.1367 4.08252 16.1367 3.94189 16.1367 3.76611Z" fill="#292F36"/>
</g>
<defs>
<clipPath id="clip0_54_396">
<rect width="18" height="15" fill="white" transform="translate(0 0.000244141)"/>
</clipPath>
</defs>
</svg>
